<svg width="574" height="404" viewBox="0 0 574 404" fill="none" xmlns="http://www.w3.org/2000/svg">
<rect width="542" height="337" rx="20" fill="white"/>
<path fill-rule="evenodd" clip-rule="evenodd" d="M276.314 37.2362C276.342 37.2707 279.081 40.8117 283.288 40.9929C285.821 41.1007 288.163 39.9853 290.249 37.6735C292.847 34.7967 294.486 34.2395 295.402 34.2791C296.754 34.3387 297.976 35.8379 299.014 37.2362C299.041 37.2707 301.775 40.8109 305.987 40.9929C308.519 41.1007 310.86 39.9862 312.948 37.6735C314.511 35.9431 316.072 35.0814 317.59 35.1098C319.935 35.1512 321.725 37.2586 321.763 37.3017C322.356 38.0237 323.477 38.173 324.272 37.6347C325.069 37.0973 325.236 36.0699 324.645 35.3445C324.532 35.2021 321.817 31.9276 317.698 31.8336C315.011 31.7724 312.478 33.037 310.171 35.5929C308.864 37.0386 307.535 37.7555 306.22 37.7218C304.26 37.6727 302.467 35.9845 301.98 35.385C300.799 33.7926 298.825 31.1461 295.574 31.0055C293.008 30.8968 290.359 32.396 287.473 35.5929C286.166 37.0386 284.838 37.7555 283.52 37.7218C281.562 37.6727 279.769 35.9845 279.284 35.385C278.102 33.7926 276.129 31.1461 272.876 31.0055C270.311 30.8968 267.661 32.396 264.775 35.5929C263.468 37.0386 262.138 37.7563 260.823 37.7218C258.865 37.6727 257.072 35.9845 256.584 35.385C255.402 33.7926 253.432 31.1461 250.177 31.0055C247.612 30.8968 244.963 32.396 242.077 35.5929C241.801 35.8983 241.668 36.2649 241.668 36.6315C241.668 37.1042 241.892 37.5743 242.323 37.8987C243.091 38.4732 244.223 38.3731 244.854 37.6735C247.453 34.7967 249.091 34.2395 250.008 34.2791C251.36 34.3387 252.581 35.8379 253.617 37.2362C253.644 37.2707 256.376 40.8109 260.589 40.9911C263.121 41.1033 265.465 39.9862 267.554 37.6735C270.15 34.7967 271.789 34.2395 272.707 34.2791C274.056 34.3387 275.276 35.8379 276.314 37.2362" fill="#0192D5"/>
<path fill-rule="evenodd" clip-rule="evenodd" d="M426.954 254.315C426.741 252.431 425.74 250.866 424.076 249.887C422.434 248.922 420.138 248.691 417.906 249.459C417.906 249.459 417.237 249.72 416.066 250.176C414.908 250.659 413.282 251.417 411.438 252.487C409.615 253.582 407.58 254.981 405.61 256.674C403.649 258.373 401.751 260.335 400.054 262.407C396.642 266.551 394.085 271.103 392.45 274.607C391.628 276.359 391.023 277.855 390.615 278.917C390.211 279.981 390 280.605 390 280.605L403.053 285C403.053 285 403.227 284.53 403.526 283.705C403.842 282.882 404.322 281.696 404.972 280.311C406.261 277.537 408.291 273.972 410.783 270.956C412.022 269.441 413.361 268.06 414.693 266.907C416.029 265.763 417.357 264.862 418.523 264.152C419.702 263.478 420.714 263.002 421.437 262.698C422.164 262.416 422.579 262.253 422.579 262.253C423.276 262.038 423.869 261.624 424.414 261.144C424.965 260.68 425.424 260.012 425.837 259.343C426.639 257.975 427.163 256.161 426.954 254.315" fill="#F0F0F0"/>
<path fill-rule="evenodd" clip-rule="evenodd" d="M392.796 279.275L401.821 282.319C402.221 281.316 402.642 280.34 403.088 279.388C404.713 275.889 406.921 272.33 409.144 269.63C410.42 268.07 411.85 266.588 413.276 265.35C414.511 264.291 415.847 263.329 417.367 262.399C418.757 261.602 419.859 261.096 420.547 260.806L421.739 260.342C421.785 260.323 421.832 260.308 421.881 260.292C422.187 260.197 422.522 259.983 422.933 259.619C423.32 259.291 423.7 258.707 423.955 258.293C424.605 257.181 424.912 255.814 424.774 254.585C424.635 253.344 423.993 252.354 422.922 251.722C421.793 251.057 420.102 250.947 418.583 251.461L416.796 252.157C415.863 252.547 414.309 253.258 412.485 254.318C410.51 255.509 408.656 256.844 407.004 258.266C405.162 259.863 403.337 261.751 401.731 263.719C398.047 268.198 395.581 272.984 394.439 275.44C393.844 276.702 393.31 277.959 392.796 279.275M403.081 287C402.859 287 402.63 286.966 402.406 286.89L389.421 282.511C388.329 282.145 387.744 280.976 388.108 279.898C388.108 279.898 388.327 279.248 388.745 278.144C389.336 276.607 389.95 275.158 390.632 273.707C392.125 270.496 394.702 265.701 398.472 261.115C400.222 258.973 402.22 256.909 404.243 255.153C406.077 253.573 408.124 252.097 410.33 250.768C412.383 249.577 414.113 248.785 415.21 248.327L417.086 247.594C417.112 247.582 417.139 247.574 417.166 247.564C419.871 246.633 422.86 246.868 425.069 248.167C427.28 249.468 428.654 251.585 428.941 254.127C429.179 256.249 428.689 258.476 427.56 260.402C427.071 261.199 426.488 262.065 425.692 262.736C424.883 263.453 424.081 263.933 423.213 264.217L422.136 264.635C421.61 264.859 420.675 265.287 419.52 265.949C418.246 266.728 417.09 267.564 416.032 268.468C414.794 269.544 413.535 270.85 412.402 272.236C410.387 274.681 408.381 277.916 406.897 281.12C406.396 282.184 405.934 283.276 405.513 284.373L405.055 285.632C404.748 286.474 403.944 287 403.081 287" fill="#D9D9D9"/>
<path fill-rule="evenodd" clip-rule="evenodd" d="M460.716 227.963L471.782 220.304C472.362 219.899 473.14 219.899 473.722 220.304L483.814 227.292L493.906 220.304C494.488 219.899 495.263 219.899 495.846 220.304L505.938 227.292L516.028 220.304C516.614 219.899 517.387 219.899 517.97 220.304L528.062 227.292L538.155 220.304C538.736 219.899 539.511 219.899 540.094 220.304L550.184 227.292L560.278 220.304C560.858 219.899 561.637 219.899 562.219 220.304L573.282 227.963C574.045 228.493 574.229 229.533 573.694 230.287C573.366 230.75 572.843 231 572.31 231C571.975 231 571.634 230.902 571.339 230.697L561.247 223.709L551.156 230.697C550.573 231.1 549.798 231.1 549.216 230.697L539.124 223.709L529.033 230.697C528.449 231.1 527.676 231.1 527.094 230.697L517 223.709L506.906 230.697C506.326 231.1 505.551 231.1 504.968 230.697L494.878 223.709L484.782 230.697C484.202 231.1 483.426 231.1 482.842 230.697L472.752 223.709L462.661 230.697C461.894 231.225 460.844 231.043 460.306 230.287C459.771 229.533 459.956 228.493 460.716 227.963" fill="#0192D5"/>
<path fill-rule="evenodd" clip-rule="evenodd" d="M450 292.1L436.628 298L405 226.898L418.374 221L450 292.1Z" fill="#F1F2F4"/>
<path fill-rule="evenodd" clip-rule="evenodd" d="M470 317.21L441.397 330L404 244.786L432.604 232L470 317.21Z" fill="#009FE7"/>
<path fill-rule="evenodd" clip-rule="evenodd" d="M375.802 56.5255C372.611 56.5255 369.4 56.7068 366.261 57.0641C357.555 58.057 349.056 60.3718 340.997 63.9469C319.891 73.3 303.688 90.3163 295.374 111.863C287.06 133.406 287.631 156.902 296.976 178.021C304.586 195.197 317.227 209.131 333.541 218.315C346.497 225.616 361.249 229.474 376.201 229.475H376.203C379.391 229.475 382.601 229.293 385.743 228.937C394.437 227.947 402.937 225.63 411.004 222.056C432.114 212.697 448.313 195.679 456.626 174.138C464.94 152.596 464.37 129.101 455.021 107.982C447.415 90.8061 434.772 76.8716 418.46 67.6839C405.5 60.3842 390.751 56.5255 375.802 56.5255M376.201 236V236C360.131 236 344.272 231.851 330.338 224.002C312.794 214.124 299.193 199.137 291.014 180.664C280.958 157.951 280.347 132.682 289.286 109.511C298.23 86.3403 315.654 68.0386 338.355 57.9797C347.018 54.1379 356.158 51.648 365.522 50.5805C368.905 50.1947 372.368 50 375.802 50C391.868 50 407.725 54.1485 421.661 61.9967C439.206 71.8795 452.805 86.8665 460.985 105.338C471.041 128.052 471.654 153.32 462.713 176.489C453.773 199.656 436.348 217.958 413.648 228.023C404.972 231.866 395.832 234.356 386.479 235.42C383.094 235.806 379.635 236 376.201 236" fill="#F1F2F4"/>
<g opacity="0.467579">
<path fill-rule="evenodd" clip-rule="evenodd" d="M465.577 78.99C465.016 79.0528 464.438 78.8179 464.088 78.3258C450.571 59.3188 430.694 45.3638 408.121 39.0344C396.881 35.8817 385.305 34.6734 373.712 35.4425C372.827 35.5008 372.062 34.8285 372.004 33.942C371.943 33.0554 372.616 32.2962 373.499 32.2308C385.455 31.4392 397.395 32.6861 408.986 35.9382C432.265 42.4648 452.764 56.8555 466.703 76.4604C467.215 77.182 467.049 78.186 466.327 78.7014C466.096 78.8654 465.838 78.9604 465.577 78.99" fill="#009FE7"/>
<path d="M465.577 78.99C465.016 79.0528 464.438 78.8179 464.088 78.3258C450.571 59.3188 430.694 45.3638 408.121 39.0344C396.881 35.8817 385.305 34.6734 373.712 35.4425C372.827 35.5008 372.062 34.8285 372.004 33.942C371.943 33.0554 372.616 32.2962 373.499 32.2308C385.455 31.4392 397.395 32.6861 408.986 35.9382C432.265 42.4648 452.764 56.8555 466.703 76.4604C467.215 77.182 467.049 78.186 466.327 78.7014C466.096 78.8654 465.838 78.9604 465.577 78.99" stroke="#009FE7" stroke-width="3"/>
</g>
<g opacity="0.483512">
<path fill-rule="evenodd" clip-rule="evenodd" d="M373.195 256.033C373.136 256.038 373.078 256.04 373.019 256.036C351.267 255.379 330.509 248.366 312.985 235.761C312.272 235.249 312.117 234.276 312.648 233.589C313.177 232.901 314.181 232.756 314.892 233.269C331.887 245.495 352.02 252.294 373.11 252.933C373.998 252.959 374.693 253.677 374.67 254.535C374.644 255.335 373.999 255.973 373.195 256.033" fill="#009FE7"/>
<path d="M373.195 256.033C373.136 256.038 373.078 256.04 373.019 256.036C351.267 255.379 330.509 248.366 312.985 235.761C312.272 235.249 312.117 234.276 312.648 233.589C313.177 232.901 314.181 232.756 314.892 233.269C331.887 245.495 352.02 252.294 373.11 252.933C373.998 252.959 374.693 253.677 374.67 254.535C374.644 255.335 373.999 255.973 373.195 256.033" stroke="#009FE7" stroke-width="3"/>
</g>
<path fill-rule="evenodd" clip-rule="evenodd" d="M366.757 300.964C366.227 300.548 365.95 299.855 366.007 299.021C366.067 298.194 366.428 297.283 367.069 296.537C367.069 296.537 367.327 296.231 367.817 295.658C368.063 295.374 368.366 295.023 368.717 294.608C369.079 294.197 369.51 293.735 369.982 293.214C371.887 291.136 374.708 288.218 378.431 285.051C382.149 281.889 386.753 278.465 392.002 275.403C394.624 273.874 397.386 272.402 400.244 271.084C403.103 269.76 406.049 268.557 409.015 267.502C414.954 265.378 420.964 263.889 426.562 262.893C432.165 261.888 437.352 261.41 441.763 261.176C446.172 260.955 449.808 260.98 452.343 261.048C453.612 261.088 454.605 261.128 455.28 261.165C455.957 261.198 456.32 261.216 456.32 261.216C456.492 261.229 456.661 261.248 456.829 261.275L457.487 261.317C460.431 261.502 463.008 262.727 464.713 264.478C466.428 266.234 467.266 268.514 466.94 270.837C466.769 272.048 466.307 273.154 465.637 274.126L465.89 274.16C468.524 274.517 470.855 275.839 472.353 277.808C473.819 279.727 474.308 282.022 473.813 284.21C473.421 285.958 472.474 287.445 471.244 288.591C470.011 289.738 468.483 290.548 466.831 290.914C467.289 292.211 467.411 293.635 467.158 295.071C466.829 296.939 465.94 298.566 464.765 299.812C463.583 301.063 462.109 301.935 460.515 302.297C460.899 303.506 461.018 304.833 460.842 306.198C460.539 308.527 459.467 310.534 458.066 311.934C456.659 313.34 454.915 314.139 453.079 314.047C453.079 314.047 452.245 313.999 451 313.963C449.757 313.929 448.106 313.912 446.471 313.959C444.839 313.999 443.231 314.099 442.039 314.199C441.442 314.257 440.945 314.301 440.6 314.333C440.259 314.373 440.061 314.397 440.061 314.397C439.938 314.41 439.815 314.41 439.692 314.393C439.692 314.393 439.529 314.411 439.229 314.446C438.934 314.485 438.495 314.544 437.939 314.616C436.837 314.783 435.269 315.029 433.457 315.425C431.646 315.82 429.587 316.355 427.49 317.057C425.403 317.772 423.265 318.629 421.264 319.64C419.263 320.65 417.376 321.779 415.704 322.957C414.036 324.141 412.571 325.362 411.363 326.477C410.157 327.594 409.215 328.616 408.555 329.339C408.22 329.692 407.982 330.007 407.807 330.198C407.637 330.399 407.542 330.507 407.542 330.507C406.942 331.232 405.568 331.154 404.45 330.295L366.757 300.964Z" fill="#F0F0F0"/>
<path fill-rule="evenodd" clip-rule="evenodd" d="M440.708 312.345L441.177 312.293L442.596 312.158C443.459 312.086 445.164 311.957 447.158 311.907C449.107 311.852 450.889 311.886 451.777 311.91C452.995 311.947 453.817 311.993 453.906 311.999C455.211 312.064 456.275 311.287 456.934 310.624C457.351 310.2 457.723 309.708 458.033 309.162C458.519 308.299 458.834 307.361 458.962 306.363C459.086 305.382 459.011 304.44 458.735 303.567L457.903 300.927L460.576 300.318C461.656 300.074 462.672 299.468 463.514 298.568C464.403 297.617 465.014 296.409 465.237 295.133C465.408 294.156 465.333 293.166 465.016 292.267L464.076 289.563L466.847 288.944C468.037 288.678 469.148 288.089 470.049 287.241C470.969 286.378 471.596 285.311 471.852 284.17C472.186 282.681 471.833 281.159 470.861 279.875C469.777 278.437 468.051 277.466 466.122 277.205L461.809 276.624L464.134 273.213C464.605 272.526 464.898 271.779 465.007 271.011C465.217 269.513 464.677 268.015 463.492 266.792C462.154 265.402 460.143 264.527 457.975 264.391L457.182 264.34L457.04 264.315C456.967 264.302 456.899 264.295 456.831 264.292L455.825 264.239C455.161 264.203 454.201 264.167 452.958 264.127C449.63 264.034 446.169 264.074 442.68 264.248C437.471 264.531 432.65 265.079 427.942 265.93C421.977 267.002 416.265 268.515 410.969 270.424C408.087 271.459 405.236 272.631 402.491 273.915C399.929 275.108 397.252 276.523 394.538 278.122C390.013 280.781 385.613 283.935 381.455 287.503C378.595 289.955 375.933 292.55 373.312 295.436L372.907 295.884C372.614 296.211 372.341 296.508 372.104 296.784L370.483 298.691C370.24 298.977 370.076 299.334 370.035 299.637L407.141 328.759C407.162 328.775 407.179 328.79 407.201 328.801L407.213 328.788C407.364 328.605 407.568 328.355 407.824 328.081C408.386 327.46 409.427 326.313 410.74 325.087C412.185 323.741 413.715 322.49 415.291 321.362C417.076 320.096 419.035 318.918 421.123 317.854C423.064 316.863 425.248 315.952 427.608 315.137C429.59 314.47 431.667 313.897 433.8 313.43C435.648 313.024 437.229 312.767 438.398 312.591L440.523 312.324L440.708 312.345ZM462.397 311.685C461.864 312.622 461.221 313.476 460.484 314.22C458.529 316.184 456.102 317.193 453.64 317.07C453.591 317.066 452.801 317.023 451.634 316.988C450.8 316.965 449.125 316.934 447.29 316.983C445.922 317.017 444.373 317.104 443.039 317.216L441.165 317.405C440.96 317.426 440.76 317.436 440.563 317.43L439.121 317.619C438.03 317.783 436.559 318.021 434.867 318.393C432.909 318.82 431.009 319.346 429.22 319.951C427.088 320.684 425.122 321.505 423.383 322.389C421.517 323.34 419.769 324.391 418.191 325.511C416.795 326.509 415.435 327.623 414.15 328.819C413.075 329.823 412.229 330.743 411.52 331.524L411.497 331.551C411.336 331.721 411.202 331.884 411.072 332.042C410.977 332.158 410.89 332.261 410.812 332.348L410.577 332.624C409.096 334.396 406.245 334.466 404.068 332.778L366.721 303.467C365.524 302.528 364.902 301.029 365.013 299.356C365.113 297.938 365.711 296.507 366.665 295.385L368.305 293.456C368.577 293.143 368.875 292.812 369.199 292.454L369.603 292.011C372.368 288.961 375.182 286.221 378.203 283.631C382.584 279.873 387.231 276.541 392.005 273.735C394.859 272.053 397.677 270.56 400.385 269.305C403.266 267.958 406.263 266.725 409.282 265.641C414.836 263.635 420.819 262.051 427.063 260.931C431.969 260.043 436.996 259.468 442.423 259.177C446.051 258.996 449.642 258.954 453.105 259.05C454.393 259.09 455.392 259.13 456.084 259.167L457.107 259.221C457.333 259.232 457.548 259.257 457.764 259.289L458.287 259.322C461.687 259.538 464.894 260.967 467.093 263.246C469.355 265.584 470.411 268.674 469.985 271.722C469.927 272.136 469.844 272.54 469.734 272.941C471.779 273.753 473.567 275.08 474.857 276.79C476.723 279.252 477.416 282.353 476.755 285.288C476.282 287.417 475.136 289.401 473.474 290.962C472.529 291.845 471.461 292.564 470.307 293.098C470.396 294.061 470.359 295.045 470.188 296.014C469.795 298.267 468.736 300.384 467.167 302.058C466.232 303.055 465.164 303.857 464.006 304.438C464.08 305.281 464.059 306.141 463.948 307.015C463.736 308.675 463.213 310.247 462.397 311.685V311.685Z" fill="#D6D6D6"/>
<path fill-rule="evenodd" clip-rule="evenodd" d="M469.739 276.978C469.344 277.693 468.554 278.114 467.727 277.973L466.444 277.749C465.704 277.625 464.535 277.438 463.125 277.245C460.039 276.806 456.346 276.444 452.98 276.254C449.662 276.065 445.936 276.015 442.758 276.113C441.458 276.153 440.258 276.206 439.378 276.263L438.068 276.345C436.991 276.41 436.067 275.555 436.003 274.438C435.941 273.314 436.761 272.354 437.836 272.288L439.139 272.207C440.06 272.149 441.304 272.093 442.643 272.052C445.926 271.948 449.769 272.002 453.19 272.197C456.658 272.393 460.466 272.764 463.644 273.216C465.095 273.415 466.294 273.611 467.069 273.738L468.369 273.965C469.43 274.148 470.148 275.194 469.974 276.302C469.931 276.547 469.853 276.773 469.739 276.978" fill="#D9D9D9"/>
<path fill-rule="evenodd" clip-rule="evenodd" d="M467.746 291.934C467.358 292.68 466.58 293.12 465.762 292.971L464.558 292.755C463.864 292.639 462.908 292.474 461.772 292.314C459.059 291.911 455.841 291.583 452.935 291.412C450.062 291.241 446.832 291.196 444.076 291.286C442.885 291.326 441.88 291.374 441.171 291.424L440.037 291.496C438.976 291.564 438.065 290.671 438.003 289.501C437.941 288.331 438.75 287.331 439.813 287.263L440.934 287.19C441.676 287.138 442.727 287.09 443.961 287.046C446.82 286.954 450.166 287 453.14 287.178C456.144 287.353 459.476 287.695 462.276 288.11C463.45 288.277 464.43 288.444 465.148 288.563L466.388 288.788C467.435 288.978 468.147 290.068 467.974 291.224C467.936 291.481 467.857 291.721 467.746 291.934" fill="#D9D9D9"/>
<path fill-rule="evenodd" clip-rule="evenodd" d="M460.751 303.938C460.387 304.652 459.663 305.09 458.887 304.984C458.875 304.982 457.75 304.83 456.091 304.66C454.123 304.463 451.871 304.314 449.916 304.256C447.925 304.197 445.687 304.214 443.788 304.302C442.141 304.376 441.048 304.473 441.038 304.474C439.999 304.567 439.091 303.699 439.006 302.539C438.924 301.376 439.697 300.36 440.739 300.265C440.785 300.261 441.919 300.161 443.633 300.084C445.61 299.994 447.94 299.974 450.014 300.036C452.048 300.094 454.387 300.249 456.43 300.456C458.157 300.631 459.298 300.786 459.345 300.793C460.375 300.935 461.112 301.988 460.986 303.146C460.957 303.432 460.876 303.699 460.751 303.938" fill="#D9D9D9"/>
<path fill-rule="evenodd" clip-rule="evenodd" d="M380.951 275C380.951 275 380.841 275.083 380.624 275.242C380.42 275.392 380.112 275.62 379.714 275.917C379.328 276.208 378.85 276.566 378.289 276.987C377.719 277.412 377.102 277.892 376.41 278.428C375.718 278.965 374.953 279.562 374.121 280.209C373.307 280.86 372.431 281.563 371.491 282.316C369.599 283.81 367.565 285.536 365.312 287.407C356.375 294.915 345.053 305.354 334.371 316.493C329.021 322.053 323.842 327.781 319.116 333.291C316.703 335.998 314.522 338.762 312.4 341.331C311.346 342.622 310.32 343.878 309.326 345.094C308.357 346.329 307.44 347.543 306.55 348.7C304.776 351.016 303.151 353.141 301.709 355.023C300.303 356.941 299.112 358.644 298.116 360.033C296.131 362.817 295 364.408 295 364.408L346.697 401C346.697 401 347.633 399.687 349.276 397.387C350.101 396.242 351.078 394.834 352.24 393.242C353.441 391.677 354.797 389.907 356.274 387.98C357.017 387.015 357.776 386.004 358.583 384.969C359.418 383.955 360.279 382.905 361.165 381.825C362.944 379.67 364.757 377.35 366.801 375.072C370.773 370.438 375.156 365.593 379.688 360.884C388.732 351.454 398.373 342.562 405.784 336.338C407.638 334.805 409.333 333.359 410.846 332.168C411.599 331.565 412.303 330.997 412.955 330.474C413.604 329.971 414.197 329.509 414.736 329.092C415.273 328.674 415.752 328.299 416.153 328.006C416.559 327.701 416.904 327.442 417.182 327.23C417.463 327.019 417.674 326.858 417.801 326.771C417.931 326.674 418 326.625 418 326.625L380.951 275Z" fill="#0192D5"/>
<path fill-rule="evenodd" clip-rule="evenodd" d="M344.64 403.627C344.492 403.55 344.347 403.459 344.207 403.356C342.698 402.261 342.352 400.134 343.443 398.61L346.027 394.992C346.331 394.568 346.647 394.119 346.991 393.638C347.585 392.796 348.268 391.841 349.017 390.811C349.032 390.787 349.05 390.767 349.064 390.748L353.11 385.476C353.385 385.121 353.656 384.764 353.931 384.403C354.423 383.759 354.926 383.1 355.446 382.435C355.462 382.415 355.478 382.395 355.493 382.377L358.079 379.225C358.593 378.602 359.101 377.979 359.616 377.347C360.93 375.73 362.292 374.059 363.799 372.378C368.01 367.468 372.392 362.647 376.82 358.05C385.142 349.377 394.768 340.327 403.234 333.22C403.807 332.745 404.352 332.291 404.878 331.853C406.114 330.822 407.282 329.845 408.377 328.984L410.482 327.298C410.495 327.287 410.507 327.276 410.523 327.264L412.305 325.881C412.535 325.706 412.749 325.54 412.948 325.384L379.773 279.178C379.234 279.58 378.653 280.028 378.011 280.529L375.734 282.299L373.119 284.391C371.717 285.498 370.222 286.747 368.64 288.065C368.096 288.519 367.541 288.981 366.97 289.455C357.085 297.76 345.878 308.289 336.246 318.327C331.082 323.691 325.981 329.301 321.085 335.01C321.07 335.026 321.058 335.043 321.04 335.057C319.304 337.007 317.666 339.016 316.082 340.958C315.513 341.655 314.955 342.339 314.395 343.016L311.347 346.743C310.721 347.545 310.113 348.335 309.521 349.105C309.213 349.51 308.907 349.914 308.603 350.307L303.782 356.602C302.853 357.863 302.014 359.048 301.272 360.091C300.899 360.613 300.549 361.105 300.221 361.564L297.106 365.936C296.02 367.46 293.911 367.807 292.403 366.712C290.893 365.613 290.547 363.488 291.634 361.965L294.752 357.581C295.088 357.119 295.431 356.636 295.8 356.121C296.56 355.054 297.422 353.842 298.382 352.527C298.397 352.509 298.411 352.49 298.427 352.47L303.277 346.136C303.583 345.739 303.887 345.346 304.191 344.946C304.803 344.143 305.433 343.322 306.085 342.49C306.1 342.474 306.114 342.456 306.128 342.44L309.206 338.673C309.767 337.996 310.321 337.321 310.878 336.632C312.503 334.646 314.183 332.587 316.008 330.532C320.988 324.734 326.165 319.034 331.409 313.589C341.198 303.39 352.595 292.677 362.676 284.212C363.258 283.73 363.807 283.271 364.345 282.821C365.964 281.474 367.494 280.2 368.948 279.048L371.562 276.954C371.578 276.943 371.589 276.932 371.603 276.922L373.9 275.139C374.604 274.591 375.236 274.101 375.838 273.655L378.529 271.645C380.035 270.546 382.142 270.885 383.232 272.406L420.357 324.111C420.883 324.842 421.098 325.756 420.958 326.648C420.816 327.538 420.328 328.339 419.6 328.867L419.402 329.01C419.394 329.02 419.381 329.026 419.371 329.034C419.261 329.11 419.078 329.251 418.828 329.438L417.793 330.217C417.411 330.499 416.966 330.846 416.42 331.271L414.651 332.643L412.559 334.321C412.547 334.329 412.539 334.334 412.531 334.341C411.511 335.145 410.374 336.091 409.173 337.097C408.636 337.541 408.088 338 407.525 338.466C399.257 345.407 389.82 354.278 381.658 362.787C377.303 367.305 373.003 372.037 368.869 376.857C368.855 376.877 368.837 376.894 368.82 376.915C367.416 378.482 366.097 380.1 364.822 381.667C364.297 382.315 363.778 382.952 363.258 383.575L360.711 386.685C360.213 387.317 359.737 387.943 359.273 388.552C358.99 388.922 358.711 389.287 358.434 389.645L354.419 394.881C353.705 395.859 353.05 396.782 352.471 397.597C352.119 398.091 351.796 398.553 351.487 398.978L348.909 402.588C347.924 403.97 346.099 404.381 344.64 403.627" fill="#0192D5"/>
<path opacity="0.3" fill-rule="evenodd" clip-rule="evenodd" d="M322.819 378.834C322.776 378.812 322.731 378.787 322.688 378.76C321.988 378.307 321.79 377.379 322.243 376.684C322.435 376.388 327.036 369.347 337.425 357.596C346.976 346.783 363.428 329.807 387.547 310.334C388.191 309.814 389.141 309.911 389.665 310.559C390.188 311.202 390.087 312.148 389.441 312.669C365.485 332.01 349.16 348.857 339.681 359.582C329.442 371.166 324.813 378.246 324.769 378.316C324.346 378.967 323.498 379.183 322.819 378.834" fill="white"/>
<path opacity="0.3" fill-rule="evenodd" clip-rule="evenodd" d="M322.809 347.811C322.306 347.553 321.972 347.018 322.002 346.414C322.044 345.592 322.742 344.961 323.567 345.002C331.792 345.408 341.338 348.451 351.937 354.043C359.788 358.186 365.171 362.151 365.397 362.318C366.058 362.808 366.198 363.741 365.705 364.399C365.215 365.058 364.283 365.196 363.618 364.707C363.406 364.549 342.036 348.893 323.419 347.975C323.198 347.962 322.992 347.904 322.809 347.811" fill="white"/>
<path opacity="0.3" fill-rule="evenodd" clip-rule="evenodd" d="M366.73 360.829C366.475 360.698 366.254 360.499 366.096 360.234C365.968 360.019 353.296 338.763 334.938 330.943C334.153 330.608 333.787 329.703 334.127 328.927C334.47 328.147 335.386 327.79 336.175 328.127C355.502 336.363 368.26 357.785 368.79 358.696C369.22 359.43 368.969 360.367 368.222 360.792C367.75 361.065 367.184 361.06 366.73 360.829" fill="white"/>
<rect opacity="0.673526" x="43" y="34" width="87" height="19" rx="9.5" fill="#009FE7"/>
<rect x="43" y="121" width="128.769" height="11.1429" rx="5.57143" fill="#DBDBDB"/>
<rect x="43" y="95" width="64" height="11.1429" rx="5.57143" fill="#DBDBDB"/>
<rect x="43" y="146" width="186" height="11.1429" rx="5.57143" fill="#DBDBDB"/>
<rect x="43" y="200" width="110.438" height="32" rx="6" fill="#10202F"/>
<rect x="66" y="213" width="64" height="6" rx="3" fill="white"/>
<circle cx="376" cy="143" r="54" fill="#10202F"/>
<path fill-rule="evenodd" clip-rule="evenodd" d="M375.999 110.508C358.121 110.508 343.576 125.053 343.576 142.931C343.576 160.809 358.121 175.354 375.999 175.354C393.877 175.354 408.422 160.809 408.422 142.931C408.422 125.053 393.877 110.508 375.999 110.508M375.999 177.379C357.004 177.379 341.551 161.925 341.551 142.931C341.551 123.936 357.004 108.483 375.999 108.483C394.994 108.483 410.447 123.936 410.447 142.931C410.447 161.925 394.994 177.379 375.999 177.379" fill="white"/>
<path d="M375.999 109.008C357.293 109.008 342.076 124.224 342.076 142.931H345.076C345.076 125.881 358.949 112.008 375.999 112.008V109.008ZM342.076 142.931C342.076 161.637 357.293 176.854 375.999 176.854V173.854C358.949 173.854 345.076 159.98 345.076 142.931H342.076ZM375.999 176.854C394.706 176.854 409.922 161.637 409.922 142.931H406.922C406.922 159.981 393.049 173.854 375.999 173.854V176.854ZM409.922 142.931C409.922 124.224 394.706 109.008 375.999 109.008V112.008C393.049 112.008 406.922 125.881 406.922 142.931H409.922ZM375.999 175.879C357.833 175.879 343.051 161.097 343.051 142.931H340.051C340.051 162.754 356.176 178.879 375.999 178.879V175.879ZM343.051 142.931C343.051 124.765 357.833 109.983 375.999 109.983V106.983C356.176 106.983 340.051 123.108 340.051 142.931H343.051ZM375.999 109.983C394.165 109.983 408.947 124.765 408.947 142.931H411.947C411.947 123.108 395.822 106.983 375.999 106.983V109.983ZM408.947 142.931C408.947 161.097 394.165 175.879 375.999 175.879V178.879C395.822 178.879 411.947 162.754 411.947 142.931H408.947Z" fill="white"/>
<path fill-rule="evenodd" clip-rule="evenodd" d="M375.909 177.379C370.833 177.379 366.114 173.707 362.622 167.04C359.241 160.584 357.379 152.021 357.379 142.931C357.379 133.841 359.241 125.278 362.622 118.822C366.114 112.154 370.833 108.483 375.909 108.483C376.473 108.483 376.931 108.936 376.931 109.496C376.931 110.055 376.473 110.508 375.909 110.508C371.633 110.508 367.557 113.792 364.434 119.755C361.202 125.929 359.421 134.16 359.421 142.931C359.421 151.702 361.202 159.933 364.434 166.106C367.557 172.069 371.633 175.354 375.909 175.354C376.473 175.354 376.931 175.807 376.931 176.366C376.931 176.925 376.473 177.379 375.909 177.379" fill="white"/>
<path d="M375.909 177.379C370.833 177.379 366.114 173.707 362.622 167.04C359.241 160.584 357.379 152.021 357.379 142.931C357.379 133.841 359.241 125.278 362.622 118.822C366.114 112.154 370.833 108.483 375.909 108.483C376.473 108.483 376.931 108.936 376.931 109.496C376.931 110.055 376.473 110.508 375.909 110.508C371.633 110.508 367.557 113.792 364.434 119.755C361.202 125.929 359.421 134.16 359.421 142.931C359.421 151.702 361.202 159.933 364.434 166.106C367.557 172.069 371.633 175.354 375.909 175.354C376.473 175.354 376.931 175.807 376.931 176.366C376.931 176.925 376.473 177.379 375.909 177.379" stroke="white" stroke-width="3"/>
<path fill-rule="evenodd" clip-rule="evenodd" d="M376.087 177.379C375.523 177.379 375.066 176.925 375.066 176.366C375.066 175.807 375.523 175.354 376.087 175.354C380.365 175.354 384.44 172.069 387.562 166.106C390.795 159.933 392.576 151.702 392.576 142.931C392.576 134.16 390.795 125.929 387.562 119.755C384.44 113.792 380.365 110.508 376.087 110.508C375.523 110.508 375.066 110.055 375.066 109.496C375.066 108.936 375.523 108.483 376.087 108.483C381.165 108.483 385.883 112.154 389.375 118.822C392.756 125.278 394.618 133.841 394.618 142.931C394.618 152.021 392.756 160.584 389.375 167.04C385.883 173.707 381.165 177.379 376.087 177.379" fill="white"/>
<path d="M376.087 177.379C375.523 177.379 375.066 176.925 375.066 176.366C375.066 175.807 375.523 175.354 376.087 175.354C380.365 175.354 384.44 172.069 387.562 166.106C390.795 159.933 392.576 151.702 392.576 142.931C392.576 134.16 390.795 125.929 387.562 119.755C384.44 113.792 380.365 110.508 376.087 110.508C375.523 110.508 375.066 110.055 375.066 109.496C375.066 108.936 375.523 108.483 376.087 108.483C381.165 108.483 385.883 112.154 389.375 118.822C392.756 125.278 394.618 133.841 394.618 142.931C394.618 152.021 392.756 160.584 389.375 167.04C385.883 173.707 381.165 177.379 376.087 177.379" stroke="white" stroke-width="3"/>
<path fill-rule="evenodd" clip-rule="evenodd" d="M375.997 176.448C375.483 176.448 375.066 175.995 375.066 175.435V109.496C375.066 108.936 375.483 108.483 375.997 108.483C376.512 108.483 376.928 108.936 376.928 109.496V175.435C376.928 175.995 376.512 176.448 375.997 176.448" fill="white"/>
<path d="M375.997 176.448C375.483 176.448 375.066 175.995 375.066 175.435V109.496C375.066 108.936 375.483 108.483 375.997 108.483C376.512 108.483 376.928 108.936 376.928 109.496V175.435C376.928 175.995 376.512 176.448 375.997 176.448" stroke="white" stroke-width="3"/>
<path fill-rule="evenodd" clip-rule="evenodd" d="M408.513 143.862H343.482C342.929 143.862 342.48 143.445 342.48 142.931C342.48 142.417 342.929 142 343.482 142H408.513C409.066 142 409.515 142.417 409.515 142.931C409.515 143.445 409.066 143.862 408.513 143.862" fill="white"/>
<path d="M408.513 143.862H343.482C342.929 143.862 342.48 143.445 342.48 142.931C342.48 142.417 342.929 142 343.482 142H408.513C409.066 142 409.515 142.417 409.515 142.931C409.515 143.445 409.066 143.862 408.513 143.862" stroke="white" stroke-width="3"/>
<path fill-rule="evenodd" clip-rule="evenodd" d="M376.812 130.828C366 130.828 356.01 128.075 349.404 123.274C348.955 122.948 348.867 122.335 349.207 121.905C349.548 121.474 350.188 121.39 350.637 121.716C356.895 126.264 366.436 128.873 376.812 128.873C386.762 128.873 396.06 126.434 402.321 122.184C402.781 121.872 403.417 121.975 403.743 122.416C404.069 122.856 403.96 123.466 403.501 123.779C396.902 128.259 387.175 130.828 376.812 130.828" fill="white"/>
<path d="M376.812 130.828C366 130.828 356.01 128.075 349.404 123.274C348.955 122.948 348.867 122.335 349.207 121.905C349.548 121.474 350.188 121.39 350.637 121.716C356.895 126.264 366.436 128.873 376.812 128.873C386.762 128.873 396.06 126.434 402.321 122.184C402.781 121.872 403.417 121.975 403.743 122.416C404.069 122.856 403.96 123.466 403.501 123.779C396.902 128.259 387.175 130.828 376.812 130.828" stroke="white" stroke-width="3"/>
<path fill-rule="evenodd" clip-rule="evenodd" d="M350.021 164.345C349.711 164.345 349.405 164.209 349.204 163.951C348.866 163.516 348.957 162.898 349.408 162.572C356.019 157.782 365.976 155.034 376.726 155.034C387.139 155.034 396.899 157.642 403.503 162.19C403.962 162.506 404.069 163.121 403.741 163.564C403.414 164.007 402.776 164.11 402.318 163.794C396.052 159.479 386.724 157.005 376.726 157.005C366.409 157.005 356.898 159.608 350.633 164.148C350.449 164.28 350.235 164.345 350.021 164.345" fill="white"/>
<path d="M350.021 164.345C349.711 164.345 349.405 164.209 349.204 163.951C348.866 163.516 348.957 162.898 349.408 162.572C356.019 157.782 365.976 155.034 376.726 155.034C387.139 155.034 396.899 157.642 403.503 162.19C403.962 162.506 404.069 163.121 403.741 163.564C403.414 164.007 402.776 164.11 402.318 163.794C396.052 159.479 386.724 157.005 376.726 157.005C366.409 157.005 356.898 159.608 350.633 164.148C350.449 164.28 350.235 164.345 350.021 164.345" stroke="white" stroke-width="3"/>
<path fill-rule="evenodd" clip-rule="evenodd" d="M254.3 270.701H270.702V254.297C270.702 253.027 271.732 252 273.003 252C274.272 252 275.297 253.027 275.297 254.297V270.701H291.702C292.972 270.701 294 271.731 294 272.999C294 274.268 292.972 275.296 291.702 275.296H275.297V291.701C275.297 292.972 274.272 294 273.003 294C271.732 294 270.702 292.972 270.702 291.701V275.296H254.3C253.029 275.296 252 274.268 252 272.999C252 271.731 253.029 270.701 254.3 270.701Z" fill="#10202F"/>
</svg>
