<svg width="567" height="337" viewBox="0 0 567 337" fill="none" xmlns="http://www.w3.org/2000/svg">
<rect width="527" height="337" rx="20" fill="white"/>
<rect opacity="0.673526" x="28" y="34" width="51.0914" height="19" rx="9.5" fill="#009FE7"/>
<rect opacity="0.673526" x="87.4512" y="34" width="123.548" height="19" rx="9.5" fill="#009FE7"/>
<rect x="28" y="121" width="144" height="11.1429" rx="5.57143" fill="#DBDBDB"/>
<rect x="28" y="146" width="80.1391" height="11.1429" rx="5.57143" fill="#DBDBDB"/>
<path fill-rule="evenodd" clip-rule="evenodd" d="M355.501 91.7876C314.854 91.7876 281.787 124.855 281.787 165.5C281.787 206.146 314.854 239.213 355.501 239.213C396.146 239.213 429.213 206.146 429.213 165.5C429.213 124.855 396.146 91.7876 355.501 91.7876M355.501 245C311.664 245 276 209.336 276 165.5C276 121.664 311.664 86 355.501 86C399.337 86 435 121.664 435 165.5C435 209.336 399.337 245 355.501 245" fill="#F1F2F4"/>
<path d="M355.501 90.7876C314.302 90.7876 280.787 124.303 280.787 165.5H282.787C282.787 125.408 315.407 92.7876 355.501 92.7876V90.7876ZM280.787 165.5C280.787 206.698 314.302 240.213 355.501 240.213V238.213C315.407 238.213 282.787 205.593 282.787 165.5H280.787ZM355.501 240.213C396.698 240.213 430.213 206.698 430.213 165.5H428.213C428.213 205.593 395.594 238.213 355.501 238.213V240.213ZM430.213 165.5C430.213 124.303 396.698 90.7876 355.501 90.7876V92.7876C395.594 92.7876 428.213 125.408 428.213 165.5H430.213ZM355.501 244C312.216 244 277 208.784 277 165.5H275C275 209.888 311.111 246 355.501 246V244ZM277 165.5C277 122.216 312.216 87 355.501 87V85C311.111 85 275 121.111 275 165.5H277ZM355.501 87C398.785 87 434 122.216 434 165.5H436C436 121.111 399.89 85 355.501 85V87ZM434 165.5C434 208.784 398.785 244 355.501 244V246C399.89 246 436 209.888 436 165.5H434Z" fill="#F1F2F4"/>
<path fill-rule="evenodd" clip-rule="evenodd" d="M464.751 46.2484H477.249V33.7508C477.249 32.7832 478.034 32 479.001 32C479.968 32 480.749 32.7832 480.749 33.7508V46.2484H493.248C494.217 46.2484 495 47.0337 495 47.9998C495 48.9659 494.217 49.7495 493.248 49.7495H480.749V62.2488C480.749 63.2162 479.968 64 479.001 64C478.034 64 477.249 63.2162 477.249 62.2488V49.7495H464.751C463.784 49.7495 463 48.9659 463 47.9998C463 47.0337 463.784 46.2484 464.751 46.2484Z" fill="#10202F"/>
<path fill-rule="evenodd" clip-rule="evenodd" d="M450.418 136H427.582C426.708 136 426 135.253 426 134.332C426 133.411 426.708 132.664 427.582 132.664H448.837V116.668C448.837 115.747 449.545 115 450.418 115C451.292 115 452 115.747 452 116.668V134.332C452 135.253 451.292 136 450.418 136" fill="#F1F2F4"/>
<path fill-rule="evenodd" clip-rule="evenodd" d="M324.332 96C323.411 96 322.665 95.2921 322.665 94.4183V73.1634H306.668C305.747 73.1634 305 72.455 305 71.5817C305 70.7081 305.747 70 306.668 70H324.332C325.253 70 326 70.7081 326 71.5817V94.4183C326 95.2921 325.253 96 324.332 96" fill="#F1F2F4"/>
<path fill-rule="evenodd" clip-rule="evenodd" d="M387.667 96C386.746 96 386 95.2856 386 94.4047V71.5953C386 70.7142 386.746 70 387.667 70H405.333C406.255 70 407 70.7142 407 71.5953C407 72.4761 406.255 73.1906 405.333 73.1906H389.335V94.4047C389.335 95.2856 388.589 96 387.667 96" fill="#F1F2F4"/>
<path fill-rule="evenodd" clip-rule="evenodd" d="M296.5 63.9238C291.771 63.9238 287.923 67.7717 287.923 72.5014C287.923 77.2298 291.771 81.0764 296.5 81.0764C301.229 81.0764 305.077 77.2298 305.077 72.5014C305.077 67.7717 301.229 63.9238 296.5 63.9238M296.5 87C288.505 87 282 80.4954 282 72.5014C282 64.5054 288.505 58 296.5 58C304.495 58 311 64.5054 311 72.5014C311 80.4954 304.495 87 296.5 87" fill="#F1F2F4"/>
<path fill-rule="evenodd" clip-rule="evenodd" d="M415.501 63.9238C410.771 63.9238 406.923 67.7717 406.923 72.5014C406.923 77.2298 410.771 81.0764 415.501 81.0764C420.23 81.0764 424.077 77.2298 424.077 72.5014C424.077 67.7717 420.23 63.9238 415.501 63.9238M415.501 87C407.505 87 401 80.4954 401 72.5014C401 64.5054 407.505 58 415.501 58C423.496 58 430 64.5054 430 72.5014C430 80.4954 423.496 87 415.501 87" fill="#F1F2F4"/>
<path fill-rule="evenodd" clip-rule="evenodd" d="M355.5 91C354.672 91 354 90.3054 354 89.4491V56.5509C354 55.6946 354.672 55 355.5 55C356.329 55 357 55.6946 357 56.5509V89.4491C357 90.3054 356.329 91 355.5 91" fill="#F1F2F4"/>
<path fill-rule="evenodd" clip-rule="evenodd" d="M367 45.0006C367 51.074 362.076 56 356.001 56C349.926 56 345 51.074 345 45.0006C345 38.925 349.926 34 356.001 34C362.076 34 367 38.925 367 45.0006" fill="white"/>
<mask id="mask0_0_143" style="mask-type:luminance" maskUnits="userSpaceOnUse" x="342" y="31" width="29" height="29">
<path fill-rule="evenodd" clip-rule="evenodd" d="M342 31H371V60H342V31Z" fill="white"/>
</mask>
<g mask="url(#mask0_0_143)">
<path fill-rule="evenodd" clip-rule="evenodd" d="M356.501 36.9232C351.771 36.9232 347.923 40.7712 347.923 45.5007C347.923 50.2296 351.771 54.0769 356.501 54.0769C361.23 54.0769 365.077 50.2296 365.077 45.5007C365.077 40.7712 361.23 36.9232 356.501 36.9232M356.501 60C348.505 60 342 53.4962 342 45.5007C342 37.5049 348.505 30.9999 356.501 30.9999C364.495 30.9999 371 37.5049 371 45.5007C371 53.4962 364.495 60 356.501 60" fill="#F2F3F5"/>
</g>
<path fill-rule="evenodd" clip-rule="evenodd" d="M325.332 262H307.668C306.747 262 306 261.286 306 260.405C306 259.524 306.747 258.809 307.668 258.809H323.665V237.595C323.665 236.714 324.411 236 325.332 236C326.254 236 327 236.714 327 237.595V260.405C327 261.286 326.254 262 325.332 262" fill="#F1F2F4"/>
<path fill-rule="evenodd" clip-rule="evenodd" d="M285 259.998C285 253.923 289.924 249 296 249C302.075 249 307 253.923 307 259.998C307 266.073 302.075 271 296 271C289.924 271 285 266.073 285 259.998" fill="#009FE7"/>
<path fill-rule="evenodd" clip-rule="evenodd" d="M296.5 250.923C291.771 250.923 287.923 254.77 287.923 259.498C287.923 264.229 291.771 268.077 296.5 268.077C301.229 268.077 305.077 264.229 305.077 259.498C305.077 254.77 301.229 250.923 296.5 250.923M296.5 274C288.505 274 282 267.495 282 259.498C282 251.504 288.505 245 296.5 245C304.495 245 311 251.504 311 259.498C311 267.495 304.495 274 296.5 274" fill="#F1F2F4"/>
<path fill-rule="evenodd" clip-rule="evenodd" d="M355.5 276C354.672 276 354 275.31 354 274.46V241.54C354 240.69 354.672 240 355.5 240C356.329 240 357 240.69 357 241.54V274.46C357 275.31 356.329 276 355.5 276" fill="#F1F2F4"/>
<path fill-rule="evenodd" clip-rule="evenodd" d="M356.501 277.923C351.771 277.923 347.923 281.77 347.923 286.499C347.923 291.229 351.771 295.077 356.501 295.077C361.23 295.077 365.077 291.229 365.077 286.499C365.077 281.77 361.23 277.923 356.501 277.923M356.501 301C348.505 301 342 294.495 342 286.499C342 278.504 348.505 272 356.501 272C364.495 272 371 278.504 371 286.499C371 294.495 364.495 301 356.501 301" fill="#F1F2F4"/>
<path fill-rule="evenodd" clip-rule="evenodd" d="M449.998 117C443.923 117 439 112.075 439 106C439 99.9249 443.923 95 449.998 95C456.075 95 461 99.9249 461 106C461 112.075 456.075 117 449.998 117" fill="#009FE7"/>
<path fill-rule="evenodd" clip-rule="evenodd" d="M450.498 96.9231C445.77 96.9231 441.923 100.77 441.923 105.5C441.923 110.229 445.77 114.077 450.498 114.077C455.228 114.077 459.077 110.229 459.077 105.5C459.077 100.77 455.228 96.9231 450.498 96.9231M450.498 120C442.503 120 436 113.495 436 105.5C436 97.5047 442.503 91 450.498 91C458.494 91 465 97.5047 465 105.5C465 113.495 458.494 120 450.498 120" fill="#F1F2F4"/>
<path fill-rule="evenodd" clip-rule="evenodd" d="M465.441 167H432.559C431.698 167 431 166.328 431 165.5C431 164.672 431.698 164 432.559 164H465.441C466.302 164 467 164.672 467 165.5C467 166.328 466.302 167 465.441 167" fill="#F1F2F4"/>
<path fill-rule="evenodd" clip-rule="evenodd" d="M476.999 177C470.926 177 466 172.076 466 166.001C466 159.925 470.926 155 476.999 155C483.074 155 488 159.925 488 166.001C488 172.076 483.074 177 476.999 177" fill="white"/>
<path fill-rule="evenodd" clip-rule="evenodd" d="M477.499 156.923C472.771 156.923 468.923 160.771 468.923 165.501C468.923 170.23 472.771 174.077 477.499 174.077C482.229 174.077 486.077 170.23 486.077 165.501C486.077 160.771 482.229 156.923 477.499 156.923M477.499 180C469.504 180 463 173.496 463 165.501C463 157.505 469.504 151 477.499 151C485.495 151 492 157.505 492 165.501C492 173.496 485.495 180 477.499 180" fill="#F1F2F4"/>
<path fill-rule="evenodd" clip-rule="evenodd" d="M260.581 217C259.708 217 259 216.253 259 215.332V197.668C259 196.747 259.708 196 260.581 196H283.418C284.292 196 285 196.747 285 197.668C285 198.589 284.292 199.336 283.418 199.336H262.163V215.332C262.163 216.253 261.455 217 260.581 217" fill="#F1F2F4"/>
<path fill-rule="evenodd" clip-rule="evenodd" d="M283.405 136H260.595C259.714 136 259 135.253 259 134.332V116.668C259 115.747 259.714 115 260.595 115C261.476 115 262.19 115.747 262.19 116.668V132.664H283.405C284.286 132.664 285 133.411 285 134.332C285 135.253 284.286 136 283.405 136" fill="#F1F2F4"/>
<path fill-rule="evenodd" clip-rule="evenodd" d="M261.501 217.923C256.771 217.923 252.923 221.77 252.923 226.5C252.923 231.229 256.771 235.077 261.501 235.077C266.23 235.077 270.077 231.229 270.077 226.5C270.077 221.77 266.23 217.923 261.501 217.923M261.501 241C253.505 241 247 234.496 247 226.5C247 218.505 253.505 212 261.501 212C269.496 212 276 218.505 276 226.5C276 234.496 269.496 241 261.501 241" fill="#F1F2F4"/>
<path fill-rule="evenodd" clip-rule="evenodd" d="M262.001 95C268.075 95 273 99.9239 273 106C273 112.077 268.075 117 262.001 117C255.926 117 251 112.077 251 106C251 99.9239 255.926 95 262.001 95" fill="#009FE7"/>
<path fill-rule="evenodd" clip-rule="evenodd" d="M261.501 96.9236C256.771 96.9236 252.923 100.771 252.923 105.5C252.923 110.229 256.771 114.076 261.501 114.076C266.23 114.076 270.077 110.229 270.077 105.5C270.077 100.771 266.23 96.9236 261.501 96.9236M261.501 120C253.505 120 247 113.496 247 105.5C247 97.5043 253.505 91 261.501 91C269.496 91 276 97.5043 276 105.5C276 113.496 269.496 120 261.501 120" fill="#F1F2F4"/>
<path fill-rule="evenodd" clip-rule="evenodd" d="M279.46 167H246.54C245.689 167 245 166.328 245 165.5C245 164.672 245.689 164 246.54 164H279.46C280.311 164 281 164.672 281 165.5C281 166.328 280.311 167 279.46 167" fill="#F1F2F4"/>
<path fill-rule="evenodd" clip-rule="evenodd" d="M236.001 155C242.073 155 247 159.925 247 166.001C247 172.076 242.073 177 236.001 177C229.926 177 225 172.076 225 166.001C225 159.925 229.926 155 236.001 155" fill="#009FE7"/>
<mask id="mask1_0_143" style="mask-type:luminance" maskUnits="userSpaceOnUse" x="221" y="151" width="29" height="29">
<path fill-rule="evenodd" clip-rule="evenodd" d="M221 151H250V180H221V151Z" fill="white"/>
</mask>
<g mask="url(#mask1_0_143)">
<path fill-rule="evenodd" clip-rule="evenodd" d="M235.501 156.923C230.771 156.923 226.923 160.771 226.923 165.501C226.923 170.23 230.771 174.077 235.501 174.077C240.23 174.077 244.077 170.23 244.077 165.501C244.077 160.771 240.23 156.923 235.501 156.923M235.501 180C227.505 180 221 173.496 221 165.501C221 157.505 227.505 151 235.501 151C243.496 151 250 157.505 250 165.501C250 173.496 243.496 180 235.501 180" fill="#F1F2F4"/>
</g>
<path fill-rule="evenodd" clip-rule="evenodd" d="M443.667 225.539C444.192 225.399 444.615 224.968 444.834 224.33C445.049 223.694 445.066 222.902 444.823 222.146C444.823 222.146 444.723 221.836 444.539 221.258C444.444 220.968 444.33 220.611 444.194 220.19C444.055 219.772 443.879 219.294 443.688 218.757C442.922 216.612 441.733 213.553 439.947 210.027C438.167 206.506 435.809 202.509 432.854 198.585C431.381 196.623 429.782 194.659 428.063 192.778C426.347 190.896 424.525 189.077 422.645 187.359C418.884 183.914 414.87 180.92 411.009 178.421C407.147 175.915 403.43 173.93 400.216 172.371C396.997 170.824 394.278 169.701 392.366 168.958C391.41 168.589 390.655 168.305 390.14 168.12C389.625 167.934 389.35 167.833 389.35 167.833C389.218 167.788 389.086 167.749 388.951 167.719L388.448 167.543C386.194 166.756 383.89 166.859 382.069 167.63C380.242 168.398 378.901 169.831 378.418 171.664C378.166 172.619 378.164 173.589 378.359 174.524L378.157 174.468C376.084 173.908 373.932 174.16 372.198 175.157C370.504 176.124 369.418 177.681 369.102 179.465C368.846 180.89 369.087 182.294 369.645 183.536C370.207 184.776 371.091 185.858 372.207 186.648C371.461 187.471 370.922 188.494 370.662 189.639C370.32 191.138 370.474 192.626 370.96 193.925C371.45 195.226 372.275 196.34 373.351 197.108C372.685 197.889 372.181 198.839 371.884 199.909C371.381 201.739 371.55 203.568 372.155 205.053C372.765 206.54 373.814 207.682 375.212 208.191C375.212 208.191 375.849 208.417 376.788 208.781C377.726 209.146 378.963 209.653 380.165 210.199C381.369 210.742 382.538 211.321 383.397 211.77C383.823 211.998 384.176 212.188 384.426 212.321C384.669 212.458 384.808 212.536 384.808 212.536C384.895 212.586 384.988 212.624 385.085 212.652C385.085 212.652 385.199 212.714 385.413 212.835C385.621 212.958 385.929 213.139 386.32 213.368C387.091 213.836 388.18 214.514 389.408 215.375C390.636 216.238 392.003 217.283 393.346 218.464C394.679 219.65 396.003 220.961 397.178 222.341C398.354 223.721 399.407 225.153 400.286 226.556C401.158 227.961 401.865 229.33 402.418 230.54C402.967 231.75 403.349 232.807 403.614 233.552C403.753 233.921 403.831 234.228 403.901 234.427C403.967 234.631 406.085 240.845 406.085 240.845C406.306 241.574 409.844 239.514 410.944 239.225L443.667 225.539Z" fill="#F0F0F0"/>
<path fill-rule="evenodd" clip-rule="evenodd" d="M407.063 232.808C407.166 233.092 407.242 233.341 407.297 233.523C407.32 233.595 407.337 233.657 407.356 233.712L407.37 233.753C407.42 233.908 408.209 236.257 408.946 238.447C409.269 238.302 409.589 238.153 409.827 238.04C410.667 237.649 411.236 237.387 411.716 237.238L443.906 223.607C443.961 223.417 443.982 223.093 443.872 222.748L443.253 220.8C443.165 220.531 443.057 220.224 442.937 219.886L442.773 219.421C441.725 216.45 440.551 213.676 439.186 210.945C437.205 206.975 434.914 203.234 432.378 199.824C430.859 197.775 429.31 195.875 427.777 194.178C426.133 192.351 424.379 190.576 422.564 188.896C419.22 185.794 415.45 182.862 411.353 180.178C408.12 178.055 404.709 176.118 400.924 174.26C398.399 173.03 395.844 171.905 393.333 170.917C392.391 170.549 391.668 170.273 391.187 170.098L390.402 169.811C390.367 169.798 390.31 169.782 390.255 169.769L390.141 169.743L389.534 169.528C388.733 169.244 387.913 169.101 387.093 169.101C386.24 169.101 385.414 169.261 384.701 169.567C383.44 170.105 382.577 171.051 382.269 172.231C382.111 172.84 382.099 173.484 382.235 174.147L382.908 177.426L379.521 176.487C378.989 176.342 378.443 176.268 377.901 176.268C376.921 176.268 375.981 176.51 375.187 176.974C374.062 177.624 373.33 178.646 373.118 179.855C372.953 180.79 373.089 181.78 373.507 182.721C373.913 183.634 374.555 184.423 375.355 184.998L377.221 186.336L375.684 188.051C375.175 188.62 374.812 189.332 374.637 190.115C374.407 191.139 374.481 192.213 374.853 193.218C375.2 194.152 375.766 194.924 376.493 195.449L378.287 196.749L376.854 198.449C376.38 199.014 376.031 199.691 375.82 200.462C375.47 201.747 375.538 203.102 376.01 204.275C376.289 204.966 376.829 205.867 377.806 206.244C378.098 206.339 378.566 206.521 379.435 206.86C380.108 207.126 381.445 207.667 382.872 208.322C383.944 208.813 385.143 209.404 386.16 209.942L387.52 210.689L387.661 210.728L388.585 211.263L389.157 211.602C389.97 212.104 391.064 212.793 392.314 213.68C393.756 214.707 395.119 215.791 396.371 216.903C397.88 218.265 399.219 219.635 400.355 220.985C401.574 222.435 402.663 223.933 403.593 225.437C404.417 226.778 405.166 228.194 405.823 229.652C406.42 230.987 406.837 232.167 407.063 232.808M407.894 243H407.893C406.848 243 405.982 242.389 405.676 241.438C405.322 240.389 403.675 235.498 403.527 235.047C403.496 234.955 403.463 234.849 403.425 234.727C403.378 234.569 403.328 234.405 403.265 234.23L403.253 234.2C402.97 233.393 402.626 232.444 402.136 231.349C401.553 230.057 400.888 228.797 400.157 227.608C399.335 226.278 398.362 224.943 397.272 223.644C396.258 222.439 395.051 221.204 393.688 219.975C392.558 218.969 391.309 217.978 389.988 217.038C388.841 216.223 387.827 215.583 387.068 215.116L386.059 214.519C385.909 214.462 385.765 214.393 385.624 214.314L385.262 214.106L384.266 213.568C383.333 213.073 382.209 212.519 381.201 212.059C379.86 211.442 378.602 210.934 377.969 210.685C377.467 210.488 377.056 210.333 376.795 210.235L376.46 210.112C374.594 209.427 373.102 207.905 372.263 205.829C371.452 203.819 371.331 201.526 371.917 199.369C372.104 198.683 372.358 198.036 372.674 197.43C371.993 196.632 371.446 195.697 371.063 194.66C370.411 192.9 370.283 191.015 370.688 189.205C370.863 188.428 371.139 187.685 371.502 186.995C370.812 186.234 370.24 185.359 369.815 184.407C369.059 182.705 368.823 180.884 369.131 179.137C369.55 176.746 371.024 174.659 373.173 173.415C374.649 172.556 376.388 172.122 378.161 172.169C378.206 171.837 378.271 171.509 378.354 171.184C378.98 168.782 380.719 166.815 383.126 165.788C384.331 165.273 385.704 165 387.093 165C388.367 165 389.638 165.22 390.871 165.657L391.271 165.798C391.438 165.84 391.602 165.89 391.764 165.948L392.561 166.24C393.065 166.423 393.818 166.711 394.795 167.091C397.407 168.12 400.06 169.287 402.685 170.566C406.629 172.503 410.182 174.52 413.554 176.736C417.837 179.542 421.789 182.616 425.295 185.869C427.2 187.63 429.043 189.496 430.767 191.412C432.387 193.203 434.018 195.206 435.616 197.36C438.291 200.96 440.708 204.908 442.798 209.093C444.242 211.978 445.48 214.907 446.588 218.045L446.75 218.504C446.882 218.875 447.001 219.215 447.102 219.526L447.727 221.498C448.09 222.641 448.092 223.871 447.728 224.959C447.31 226.195 446.445 227.087 445.342 227.443L413.041 241.123L412.904 241.16C412.69 241.221 411.988 241.548 411.525 241.764C409.881 242.533 408.818 243 407.894 243" fill="#D6D6D6"/>
<path fill-rule="evenodd" clip-rule="evenodd" d="M388 206.37C388 207.822 386.839 209 385.404 209H327.596C326.162 209 325 207.822 325 206.37V157.63C325 156.177 326.162 155 327.596 155H385.404C386.839 155 388 156.177 388 157.63V206.37Z" fill="#10202F"/>
<path fill-rule="evenodd" clip-rule="evenodd" d="M327.202 158.603C326.909 158.603 326.671 158.844 326.671 159.141V207.779C326.671 208.076 326.909 208.317 327.202 208.317H384.88C385.173 208.317 385.411 208.076 385.411 207.779V159.141C385.411 158.844 385.173 158.603 384.88 158.603H327.202ZM385.349 212H327.65C325.086 212 323 209.889 323 207.294V158.706C323 156.111 325.086 154 327.65 154H385.349C387.913 154 390 156.111 390 158.706V207.294C390 209.889 387.913 212 385.349 212V212Z" fill="white"/>
<path fill-rule="evenodd" clip-rule="evenodd" d="M378.642 156C377.34 156 376.285 154.966 376.285 153.692V136.48C376.285 125.527 367.186 116.617 356.001 116.617C344.815 116.617 335.715 125.527 335.715 136.48V153.692C335.715 154.966 334.659 156 333.357 156C332.055 156 331 154.966 331 153.692V136.48C331 122.982 342.215 112 356.001 112C369.785 112 381 122.982 381 136.48V153.692C381 154.966 379.945 156 378.642 156Z" fill="#10202F"/>
<path fill-rule="evenodd" clip-rule="evenodd" d="M364 179.386C364 175.307 360.866 172 356.999 172C353.134 172 350 175.307 350 179.386C350 182.698 352.065 185.502 354.911 186.439V198.799C354.911 198.91 354.995 199 355.101 199H358.899C359.004 199 359.089 198.91 359.089 198.799V186.439C361.935 185.502 364 182.698 364 179.386" fill="white"/>
<path fill-rule="evenodd" clip-rule="evenodd" d="M417.842 191.744C406.745 188.375 399.18 188.512 388.051 190.003C384.987 190.555 382.309 193.241 383.16 197.528C383.946 201.487 386.628 202.989 389.623 202.411C397.359 201.179 402.195 200.836 410.102 203.162C406.588 213.679 408.915 226.183 418 231L417.842 191.744Z" fill="#F1F2F4"/>
<path fill-rule="evenodd" clip-rule="evenodd" d="M418.121 233C417.825 233 417.523 232.928 417.242 232.775C412.623 230.263 409.274 225.627 407.815 219.724C406.631 214.928 406.72 209.581 408.047 204.469C401.961 202.88 397.701 203.132 390.652 204.283C386.458 205.116 383.111 202.598 382.193 197.858C381.725 195.438 382.112 193.205 383.313 191.397C384.473 189.655 386.359 188.43 388.487 188.036C388.515 188.031 388.543 188.027 388.571 188.023C399.67 186.498 407.348 186.359 418.513 189.837C419.505 190.145 420.067 191.221 419.763 192.237C419.462 193.254 418.416 193.828 417.421 193.519C406.869 190.233 399.878 190.354 389.114 191.83C387.987 192.049 387.005 192.679 386.417 193.565C385.785 194.512 385.604 195.705 385.877 197.109C386.388 199.757 387.818 200.928 390 200.494C398.217 199.151 403.166 198.951 410.925 201.29C411.415 201.438 411.824 201.783 412.06 202.246C412.296 202.709 412.338 203.25 412.176 203.746C409.234 212.772 410.627 224.821 419.002 229.376C419.918 229.874 420.266 231.039 419.781 231.978C419.444 232.629 418.794 233 418.121 233" fill="#D6D6D6"/>
<path fill-rule="evenodd" clip-rule="evenodd" d="M415.166 295.525C415.166 295.525 455.532 295.881 468.987 296C469.587 253.825 448.978 220 448.978 220L402 246.318C402 246.318 415.886 271.924 415.166 295.525C415.16 295.666 415.166 295.525 415.166 295.525" fill="#009FE7"/>
<path opacity="0.3" fill-rule="evenodd" clip-rule="evenodd" d="M460.715 275.996C461.161 276.034 461.612 275.824 461.848 275.427C462.167 274.889 461.968 274.203 461.398 273.9C455.726 270.856 448.053 268.96 438.597 268.272C431.593 267.759 426.312 268.126 426.092 268.143C425.444 268.188 424.955 268.726 425.003 269.346C425.055 269.963 425.619 270.426 426.268 270.379C426.479 270.365 447.399 268.964 460.24 275.855C460.39 275.935 460.554 275.98 460.715 275.996" fill="white"/>
<path opacity="0.3" fill-rule="evenodd" clip-rule="evenodd" d="M424.105 265.996C424.328 266.013 424.559 265.975 424.775 265.87C424.946 265.786 442.237 257.411 457.602 259.665C458.26 259.763 458.883 259.338 458.985 258.719C459.089 258.097 458.637 257.516 457.977 257.419C441.802 255.047 424.382 263.496 423.648 263.857C423.058 264.148 422.828 264.835 423.138 265.391C423.336 265.746 423.709 265.964 424.105 265.996" fill="white"/>
<path fill-rule="evenodd" clip-rule="evenodd" d="M415.671 296.592C415.651 296.592 415.628 296.592 415.606 296.591C414.223 296.545 413.133 295.415 413.146 294.053C413.147 294.032 413.147 294.011 413.147 293.988L413.148 293.925C413.838 271.63 400.445 246.928 400.308 246.679C399.645 245.469 400.087 243.951 401.302 243.279L448.218 217.321C449.415 216.659 450.921 217.052 451.634 218.208C451.85 218.557 456.965 226.915 462.065 240.525C466.766 253.08 472.304 272.64 471.987 294.516C471.969 295.902 470.822 297.012 469.419 297L469.408 296.998C468.002 296.979 466.878 295.835 466.898 294.444C467.2 273.395 461.865 254.525 457.335 242.4C453.852 233.078 450.3 226.202 448.497 222.942L405.935 246.491C409.322 253.253 418.855 274.16 418.24 294.088C418.238 294.091 418.238 294.094 418.239 294.097L418.237 294.156C418.19 295.526 417.047 296.604 415.671 296.592" fill="#009FE7"/>
<path opacity="0.3" fill-rule="evenodd" clip-rule="evenodd" d="M442.796 289C442.15 288.994 441.625 288.432 441.616 287.73C441.275 262.905 431.24 242.097 431.138 241.89C430.831 241.261 431.053 240.482 431.637 240.151C432.218 239.816 432.94 240.058 433.245 240.687C433.351 240.9 443.649 262.258 444 287.693C444.008 288.404 443.483 288.989 442.824 288.999C442.816 289 442.804 288.999 442.796 289" fill="white"/>
<path fill-rule="evenodd" clip-rule="evenodd" d="M197.657 306.24L207.749 299.275C208.279 298.908 208.987 298.908 209.519 299.275L218.725 305.629L227.932 299.275C228.463 298.908 229.171 298.908 229.703 299.275L238.909 305.629L248.115 299.275C248.648 298.908 249.356 298.908 249.886 299.275L259.092 305.629L268.298 299.275C268.83 298.908 269.537 298.908 270.068 299.275L279.275 305.629L288.482 299.275C289.013 298.908 289.721 298.908 290.252 299.275L300.345 306.24C301.04 306.721 301.209 307.667 300.72 308.352C300.421 308.774 299.943 309 299.459 309C299.152 309 298.844 308.911 298.573 308.724L289.367 302.371L280.16 308.724C279.629 309.091 278.921 309.091 278.389 308.724L269.184 302.371L259.977 308.724C259.446 309.091 258.739 309.091 258.207 308.724L249.001 302.371L239.794 308.724C239.263 309.091 238.554 309.091 238.023 308.724L228.817 302.371L219.61 308.724C219.079 309.091 218.372 309.091 217.84 308.724L208.635 302.371L199.428 308.724C198.729 309.205 197.769 309.039 197.28 308.352C196.791 307.667 196.959 306.721 197.657 306.24" fill="#009FE7"/>
<rect x="28" y="220" width="110.438" height="32" rx="6" fill="#10202F"/>
<rect x="51" y="233" width="64" height="6" rx="3" fill="white"/>
<path fill-rule="evenodd" clip-rule="evenodd" d="M518.316 105.236C518.344 105.271 521.082 108.812 525.29 108.993C527.823 109.101 530.165 107.985 532.251 105.674C534.849 102.797 536.488 102.239 537.404 102.279C538.756 102.339 539.978 103.838 541.016 105.236C541.043 105.271 543.777 108.811 547.989 108.993C550.521 109.101 552.862 107.986 554.95 105.674C556.513 103.943 558.074 103.081 559.592 103.11C561.937 103.151 563.727 105.259 563.765 105.302C564.358 106.024 565.479 106.173 566.274 105.635C567.071 105.097 567.238 104.07 566.647 103.344C566.534 103.202 563.819 99.9276 559.7 99.8336C557.013 99.7724 554.48 101.037 552.173 103.593C550.866 105.039 549.537 105.755 548.222 105.722C546.262 105.673 544.469 103.985 543.982 103.385C542.801 101.793 540.827 99.1461 537.576 99.0055C535.01 98.8968 532.361 100.396 529.475 103.593C528.168 105.039 526.84 105.755 525.522 105.722C523.564 105.673 521.771 103.985 521.286 103.385C520.104 101.793 518.131 99.1461 514.878 99.0055C512.313 98.8968 509.663 100.396 506.777 103.593C505.47 105.039 504.14 105.756 502.825 105.722C500.867 105.673 499.074 103.985 498.586 103.385C497.404 101.793 495.434 99.1461 492.179 99.0055C489.614 98.8968 486.965 100.396 484.079 103.593C483.803 103.898 483.67 104.265 483.67 104.631C483.67 105.104 483.894 105.574 484.325 105.899C485.093 106.473 486.225 106.373 486.856 105.674C489.455 102.797 491.093 102.239 492.01 102.279C493.362 102.339 494.583 103.838 495.619 105.236C495.646 105.271 498.378 108.811 502.591 108.991C505.123 109.103 507.467 107.986 509.556 105.674C512.152 102.797 513.791 102.239 514.709 102.279C516.058 102.339 517.278 103.838 518.316 105.236" fill="#0192D5"/>
</svg>
