<svg width="593" height="337" viewBox="0 0 593 337" fill="none" xmlns="http://www.w3.org/2000/svg">
<rect width="542" height="337" rx="20" fill="white"/>
<rect opacity="0.673526" x="43" y="34" width="186" height="19" rx="9.5" fill="#009FE7"/>
<rect x="43" y="121" width="99" height="11.1429" rx="5.57143" fill="#DBDBDB"/>
<rect x="43" y="146" width="143" height="11.1429" rx="5.57143" fill="#DBDBDB"/>
<path fill-rule="evenodd" clip-rule="evenodd" d="M229.452 226.997C228.874 227.034 228.295 226.732 227.86 226.137C227.421 225.544 227.151 224.716 227.11 223.843C227.11 223.843 227.085 223.49 227.073 222.807C227.056 222.125 227.033 221.128 227.003 219.858C226.991 217.29 226.997 213.602 227.365 208.984C227.414 208.405 227.462 207.818 227.513 207.215C227.579 206.604 227.649 205.984 227.719 205.351C227.849 204.095 228.061 202.752 228.257 201.392C228.711 198.638 229.298 195.687 230.137 192.57C230.993 189.451 232.097 186.167 233.557 182.819C235.015 179.474 236.84 176.063 239.061 172.788C241.281 169.51 243.917 166.395 246.795 163.637C248.228 162.25 249.737 160.981 251.259 159.781C252.791 158.612 254.344 157.514 255.9 156.545C259.011 154.589 262.105 153.048 265.008 151.834C267.914 150.622 270.634 149.73 273.096 149.034C275.558 148.339 277.762 147.854 279.678 147.482C281.598 147.108 283.232 146.849 284.558 146.661C285.888 146.47 286.903 146.355 287.601 146.272C288.291 146.196 288.657 146.157 288.657 146.157C288.831 146.139 289.01 146.128 289.182 146.128L289.84 146.065C291.326 145.919 292.713 146.027 293.973 146.313C295.221 146.604 296.334 147.081 297.254 147.707C297.712 148.016 298.129 148.362 298.494 148.74C298.856 149.116 299.169 149.521 299.428 149.951C299.95 150.808 300.244 151.767 300.282 152.782C300.323 153.838 300.081 154.853 299.607 155.783L299.852 155.774C302.369 155.672 304.643 156.393 306.321 157.748C306.727 158.079 307.094 158.439 307.416 158.824C307.731 159.207 308.002 159.615 308.228 160.042C308.682 160.896 308.939 161.825 308.992 162.796C309.072 164.342 308.582 165.807 307.646 167.035C306.712 168.261 305.338 169.246 303.722 169.845C304.443 170.863 304.879 172.042 304.92 173.3C305.037 176.588 302.453 179.445 299.12 180.548C299.742 181.517 300.114 182.627 300.166 183.813C300.21 184.827 300.016 185.804 299.648 186.703C299.272 187.602 298.727 188.424 298.054 189.131C297.388 189.838 296.608 190.429 295.756 190.867C294.916 191.311 293.993 191.596 293.064 191.701C293.064 191.701 292.201 191.787 291.003 191.957C289.8 192.124 288.281 192.386 286.916 192.7C285.552 193.012 284.357 193.381 283.539 193.673C283.341 193.748 283.147 193.81 282.993 193.871C282.837 193.935 282.703 193.988 282.593 194.032C282.481 194.076 282.392 194.108 282.338 194.136C282.284 194.159 282.255 194.173 282.255 194.173C282.181 194.207 282.1 194.226 282.017 194.235C282.017 194.235 281.916 194.273 281.742 194.356C281.658 194.396 281.552 194.446 281.429 194.507C281.367 194.535 281.3 194.566 281.23 194.597C281.163 194.633 281.094 194.672 281.023 194.712C280.419 195.02 279.664 195.469 278.929 196.024C278.573 196.313 278.212 196.629 277.851 196.979C277.503 197.344 277.153 197.749 276.797 198.224C276.435 198.692 276.092 199.269 275.735 199.921C275.551 200.236 275.394 200.618 275.207 200.975C275.053 201.378 274.864 201.754 274.713 202.198C274.539 202.61 274.403 203.092 274.24 203.545C274.169 203.789 274.099 204.032 274.026 204.278L273.918 204.641L273.822 205.029C273.756 205.287 273.69 205.544 273.624 205.798C273.567 206.07 273.512 206.336 273.451 206.606C273.327 207.126 273.245 207.702 273.141 208.244C272.761 210.458 272.558 212.768 272.468 214.83C272.434 215.334 272.433 215.847 272.417 216.324C272.407 216.806 272.382 217.251 272.392 217.693C272.4 218.573 272.376 219.32 272.404 219.97C272.42 220.613 272.434 221.117 272.44 221.462C272.443 221.634 272.449 221.766 272.456 221.856C272.46 221.948 272.462 221.995 272.462 221.995C272.527 223.25 271.591 224.328 270.4 224.413L229.452 226.997Z" fill="#F0F0F0"/>
<path fill-rule="evenodd" clip-rule="evenodd" d="M229.557 224.873L270.253 222.31C270.317 222.302 270.424 222.2 270.416 222.052L270.411 221.928C270.403 221.812 270.396 221.65 270.394 221.443L270.357 219.993C270.339 219.549 270.342 219.088 270.344 218.598C270.346 218.306 270.347 217.996 270.344 217.669C270.338 217.344 270.347 217.012 270.358 216.692C270.363 216.546 270.366 216.395 270.37 216.241L270.371 216.213C270.374 216.069 270.38 215.921 270.382 215.772C270.389 215.435 270.396 215.055 270.422 214.67C270.528 212.272 270.771 209.917 271.123 207.862L271.132 207.819C271.164 207.645 271.195 207.465 271.226 207.285C271.294 206.907 271.363 206.513 271.456 206.118L271.703 205.015L271.956 204.017L272.312 202.82C272.369 202.666 272.419 202.511 272.469 202.356C272.569 202.059 272.669 201.75 272.798 201.441C272.909 201.121 273.029 200.845 273.133 200.6C273.191 200.467 273.247 200.338 273.3 200.202L273.388 200.006C273.45 199.887 273.509 199.763 273.567 199.64C273.678 199.41 273.801 199.146 273.951 198.888C274.412 198.044 274.788 197.446 275.165 196.954C275.546 196.449 275.939 195.985 276.368 195.537L276.422 195.483C276.792 195.124 277.187 194.773 277.633 194.411L277.692 194.364C278.427 193.81 279.268 193.282 280.062 192.875L280.873 192.474C281.119 192.361 281.262 192.306 281.262 192.306L281.52 192.207L281.594 192.201C281.663 192.171 281.726 192.146 281.788 192.122L282.219 191.95C282.33 191.906 282.451 191.863 282.582 191.817C282.652 191.791 282.728 191.765 282.802 191.738L282.842 191.722C283.468 191.499 284.771 191.068 286.444 190.683C287.705 190.393 289.256 190.112 290.698 189.911C291.842 189.75 292.688 189.662 292.817 189.65C293.495 189.569 294.173 189.36 294.776 189.041C295.441 188.698 296.028 188.254 296.543 187.709C297.059 187.167 297.456 186.563 297.731 185.905C298 185.257 298.121 184.579 298.092 183.903C298.057 183.112 297.814 182.361 297.373 181.674L295.93 179.434L298.449 178.6C301.111 177.72 302.917 175.579 302.841 173.389C302.814 172.572 302.536 171.791 302.021 171.062L300.464 168.867L302.977 167.936C304.223 167.476 305.289 166.719 305.984 165.808C306.642 164.947 306.961 163.952 306.909 162.939C306.872 162.273 306.696 161.636 306.383 161.049C306.219 160.744 306.027 160.45 305.8 160.176C305.572 159.902 305.299 159.634 304.998 159.39C303.692 158.331 301.877 157.791 299.899 157.871L296.156 158.027L297.756 154.887C298.082 154.249 298.233 153.582 298.207 152.907C298.182 152.258 297.994 151.641 297.649 151.075C297.469 150.772 297.25 150.487 296.993 150.218C296.739 149.959 296.428 149.701 296.079 149.464C295.352 148.974 294.477 148.605 293.482 148.371C292.433 148.134 291.316 148.06 290.183 148.154L289.247 148.243L289.145 148.241C289.076 148.241 289.002 148.245 288.932 148.252L288.847 148.259L287.536 148.404C286.873 148.483 285.962 148.59 284.83 148.753C283.21 148.982 281.648 149.244 280.053 149.557C277.786 149.995 275.686 150.491 273.641 151.068C270.859 151.853 268.291 152.741 265.793 153.782C262.704 155.074 259.744 156.605 256.994 158.331C255.603 159.196 254.142 160.214 252.521 161.449C250.822 162.79 249.458 163.967 248.233 165.152C245.43 167.835 242.923 170.799 240.779 173.965C238.749 176.958 236.962 180.216 235.464 183.651C234.156 186.649 233.071 189.744 232.144 193.111C231.422 195.792 230.822 198.601 230.318 201.688L230.209 202.429C230.047 203.526 229.893 204.56 229.796 205.534L229.589 207.387L229.443 209.126C229.107 213.332 229.074 216.735 229.088 219.782L229.155 222.707C229.171 223.329 229.19 223.655 229.19 223.658L229.192 223.692C229.217 224.235 229.389 224.646 229.537 224.849C229.544 224.858 229.551 224.866 229.557 224.873M270.59 226.409L270.543 226.413L229.622 228.993C228.333 229.075 227.107 228.46 226.257 227.304C225.584 226.395 225.175 225.184 225.112 223.903C225.106 223.811 225.086 223.441 225.073 222.798L225.003 219.821C224.987 216.676 225.022 213.165 225.371 208.788L225.526 206.957L225.733 205.095C225.839 204.047 226.006 202.917 226.168 201.824L226.282 201.035C226.813 197.803 227.441 194.856 228.205 192.024C229.185 188.453 230.335 185.174 231.722 181.997C233.321 178.33 235.233 174.847 237.402 171.647C239.709 168.241 242.405 165.056 245.409 162.179C246.732 160.899 248.198 159.631 250.016 158.198L250.044 158.176C251.772 156.859 253.341 155.766 254.839 154.835C257.768 152.994 260.93 151.361 264.228 149.982C266.88 148.876 269.6 147.935 272.537 147.107C274.698 146.497 276.901 145.978 279.28 145.514C280.943 145.19 282.571 144.918 284.256 144.681C285.435 144.511 286.375 144.399 287.06 144.319L288.416 144.168C288.659 144.144 288.858 144.13 289.056 144.127L289.625 144.075C289.695 144.067 289.771 144.061 289.846 144.054C291.394 143.925 292.924 144.028 294.393 144.361C295.886 144.711 297.214 145.278 298.36 146.051C298.939 146.443 299.46 146.878 299.919 147.348C300.401 147.85 300.807 148.381 301.142 148.935C301.851 150.104 302.237 151.388 302.29 152.747C302.305 153.136 302.292 153.521 302.253 153.9C304.252 154.209 306.081 154.989 307.561 156.182C308.069 156.597 308.531 157.053 308.936 157.538C309.347 158.039 309.699 158.563 309.99 159.11C310.584 160.233 310.92 161.447 310.988 162.72C311.094 164.73 310.485 166.664 309.226 168.314C308.483 169.286 307.546 170.125 306.454 170.796C306.736 171.59 306.895 172.413 306.924 173.248C307.04 176.58 305.01 179.776 301.804 181.59C302.015 182.283 302.143 182.998 302.174 183.724C302.227 185.008 302.002 186.273 301.501 187.492C301.029 188.623 300.357 189.647 299.5 190.55C298.668 191.429 297.709 192.152 296.655 192.691C295.625 193.238 294.446 193.604 293.268 193.737L293.24 193.742C293.234 193.74 292.4 193.826 291.263 193.987C289.928 194.171 288.505 194.429 287.351 194.697C285.894 195.029 284.771 195.4 284.223 195.595C284.122 195.634 284.024 195.668 283.93 195.701C283.857 195.727 283.791 195.75 283.729 195.773L283.074 196.039C282.922 196.108 282.767 196.161 282.607 196.201C282.602 196.203 282.596 196.206 282.596 196.206L281.928 196.535C281.59 196.708 280.913 197.079 280.171 197.636C279.844 197.903 279.555 198.158 279.287 198.418C278.978 198.742 278.694 199.08 278.417 199.45L278.397 199.474C278.152 199.791 277.882 200.228 277.52 200.891L277.488 200.949C277.423 201.063 277.339 201.236 277.253 201.418C277.189 201.549 277.127 201.679 277.061 201.808C277.006 201.951 276.943 202.095 276.883 202.237C276.788 202.459 276.705 202.649 276.639 202.843L276.587 202.979C276.511 203.16 276.43 203.401 276.346 203.656C276.292 203.824 276.234 203.992 276.176 204.158L275.881 205.163L275.545 206.537L275.433 207.066C275.366 207.338 275.31 207.658 275.252 207.995C275.218 208.192 275.182 208.39 275.144 208.584C274.822 210.473 274.602 212.646 274.505 214.88L274.501 214.94C274.48 215.228 274.475 215.535 274.466 215.861C274.463 216.022 274.459 216.181 274.454 216.337C274.452 216.501 274.447 216.663 274.442 216.822C274.432 217.104 274.423 217.37 274.429 217.612C274.432 217.978 274.43 218.307 274.429 218.617C274.429 219.082 274.426 219.484 274.44 219.835L274.442 219.873L274.478 221.363C274.481 221.507 274.485 221.607 274.489 221.673L274.496 221.834C274.62 224.168 272.867 226.221 270.59 226.409" fill="#D6D6D6"/>
<path fill-rule="evenodd" clip-rule="evenodd" d="M274.769 162.994C274.047 163.054 273.346 162.632 273.094 161.933C272.793 161.106 273.238 160.197 274.085 159.901C274.085 159.901 274.24 159.847 274.529 159.766L275.517 159.479C276.538 159.187 277.831 158.856 279.16 158.55C280.868 158.169 282.571 157.838 284.226 157.571C286.035 157.283 287.939 157.034 289.884 156.832C292.851 156.524 296.156 156.301 299.988 156.15L304.305 156.001C305.208 155.968 305.967 156.657 305.999 157.537C306.032 158.417 305.326 159.157 304.422 159.189L300.111 159.339C296.359 159.487 293.125 159.705 290.23 160.006C288.345 160.2 286.506 160.441 284.758 160.719C283.17 160.978 281.536 161.293 279.9 161.659C278.192 162.052 277.002 162.379 276.446 162.539L275.453 162.827C275.284 162.875 275.191 162.904 275.172 162.912C275.039 162.956 274.903 162.982 274.769 162.994" fill="#D6D6D6"/>
<path fill-rule="evenodd" clip-rule="evenodd" d="M279.771 173.995C279.049 174.049 278.35 173.659 278.096 173.012C277.793 172.246 278.232 171.4 279.078 171.121C279.078 171.121 279.21 171.075 279.46 171.01L280.25 170.799C281.07 170.579 282.129 170.33 283.235 170.092C284.713 169.785 286.145 169.529 287.506 169.323C289.077 169.089 290.734 168.886 292.435 168.721C295.097 168.461 298.127 168.269 301.687 168.136L305.882 168L306 170.966L301.816 171.104C298.334 171.232 295.376 171.42 292.786 171.672C291.144 171.833 289.547 172.028 288.041 172.252C286.747 172.447 285.38 172.693 283.978 172.983C282.574 173.284 281.62 173.529 281.18 173.646L280.377 173.862C280.255 173.893 280.191 173.913 280.173 173.918C280.04 173.961 279.906 173.984 279.771 173.995" fill="#D6D6D6"/>
<path fill-rule="evenodd" clip-rule="evenodd" d="M281.818 184.994C281.06 185.056 280.331 184.61 280.085 183.878C279.794 183.02 280.274 182.099 281.155 181.816L281.368 181.749C281.502 181.705 281.683 181.647 281.921 181.582L282.708 181.355C282.723 181.352 282.737 181.347 282.749 181.344L283.828 181.062C285.712 180.592 288.025 180.155 290.195 179.861C292.731 179.506 295.3 179.296 297.006 179.184C300.521 178.95 300.529 178.953 300.945 179.114C301.806 179.451 302.225 180.4 301.878 181.237C301.622 181.863 301.013 182.249 300.357 182.262C300.146 182.272 298.935 182.326 297.237 182.438C295.586 182.549 293.105 182.752 290.668 183.093C288.611 183.373 286.433 183.783 284.682 184.22L282.854 184.719C282.661 184.771 282.526 184.815 282.432 184.846L282.205 184.918C282.077 184.959 281.948 184.983 281.818 184.994" fill="#D6D6D6"/>
<path fill-rule="evenodd" clip-rule="evenodd" d="M227.384 146.558C223.995 147.933 222.191 151.423 223.352 154.354L234.722 183L247 178.023L235.629 149.372C234.465 146.441 230.775 145.181 227.384 146.558" fill="#F0F0F0"/>
<path fill-rule="evenodd" clip-rule="evenodd" d="M247.165 180.515C247.035 180.613 246.888 180.696 246.733 180.762C245.697 181.188 244.523 180.671 244.108 179.6L232.753 150.31C232.413 149.437 231.682 148.764 230.697 148.419C229.597 148.035 228.336 148.096 227.144 148.591C224.797 149.566 223.494 151.926 224.24 153.852L235.594 183.137C236.008 184.208 235.507 185.42 234.472 185.85C233.436 186.278 232.262 185.758 231.849 184.689L220.493 155.404C218.923 151.345 221.229 146.553 225.641 144.722C227.723 143.856 229.979 143.766 231.991 144.469C234.113 145.21 235.714 146.734 236.498 148.758L247.855 178.051C248.206 178.955 247.899 179.967 247.165 180.515" fill="#D6D6D6"/>
<path fill-rule="evenodd" clip-rule="evenodd" d="M267.723 201.843C267.603 201.893 267.476 201.932 267.341 201.958C266.224 202.187 265.136 201.454 264.911 200.321C260.973 180.427 247.633 180.183 247.066 180.183C245.932 180.183 245.004 179.25 245 178.101C244.995 176.95 245.899 176.013 247.034 176C247.215 175.999 251.557 175.988 256.43 178.964C260.823 181.653 266.563 187.396 268.958 199.496C269.158 200.492 268.619 201.467 267.723 201.843" fill="#D6D6D6"/>
<path fill-rule="evenodd" clip-rule="evenodd" d="M289 251.584L246.051 286C246.051 286 245.855 285.752 245.491 285.287C245.311 285.053 245.088 284.764 244.826 284.425C244.583 284.091 244.305 283.706 243.993 283.273C243.684 282.841 243.343 282.361 242.971 281.839C242.62 281.321 242.254 280.766 241.863 280.164C241.665 279.867 241.465 279.556 241.256 279.237C241.054 278.92 240.863 278.599 240.658 278.266C240.258 277.604 239.818 276.897 239.404 276.172C237.711 273.263 236.015 269.928 234.444 266.407C232.876 262.886 231.431 259.187 230.184 255.53C227.671 248.215 225.866 241.054 224.719 235.609C224.142 232.886 223.72 230.595 223.435 228.935C223.297 228.089 223.186 227.425 223.112 226.97C223.038 226.492 223 226.236 223 226.236L277.307 218C277.307 218 277.327 218.133 277.365 218.383C277.41 218.656 277.475 219.057 277.559 219.569C277.74 220.623 278.03 222.197 278.432 224.088C279.223 227.875 280.519 232.925 282.096 237.504C282.878 239.799 283.731 241.957 284.562 243.817C285.394 245.676 286.196 247.246 286.877 248.407C287.046 248.707 287.208 248.955 287.363 249.212C287.437 249.335 287.51 249.468 287.581 249.577C287.653 249.685 287.723 249.788 287.791 249.886C287.922 250.088 288.044 250.276 288.157 250.45C288.266 250.601 288.367 250.739 288.458 250.866C288.547 250.992 288.627 251.106 288.695 251.203C288.763 251.284 288.817 251.354 288.864 251.41C288.953 251.522 289 251.584 289 251.584" fill="#0192D5"/>
<mask id="mask0_0_457" style="mask-type:luminance" maskUnits="userSpaceOnUse" x="220" y="215" width="72" height="74">
<path fill-rule="evenodd" clip-rule="evenodd" d="M220 215H292V289H220V215Z" fill="white"/>
</mask>
<g mask="url(#mask0_0_457)">
<path fill-rule="evenodd" clip-rule="evenodd" d="M247.848 288.367C249.118 287.358 249.335 285.508 248.334 284.231L247.145 282.704L245.349 280.2C245.062 279.781 244.77 279.334 244.457 278.858L243.678 277.667C243.562 277.484 243.44 277.281 243.313 277.076L242.796 276.226C242.5 275.742 242.194 275.24 241.912 274.743C240.262 271.914 238.595 268.628 237.075 265.223C235.561 261.827 234.157 258.247 232.903 254.579C230.237 246.813 228.505 239.632 227.523 234.972C226.956 232.305 226.554 230.107 226.303 228.661L274.942 221.29C275.11 222.203 275.33 223.342 275.61 224.659C276.067 226.833 277.345 232.547 279.38 238.446C280.15 240.703 281.038 242.975 281.945 245.01C282.771 246.858 283.621 248.539 284.403 249.875C284.517 250.078 284.629 250.259 284.737 250.434C284.792 250.525 284.846 250.609 284.899 250.697C284.907 250.718 284.919 250.735 284.93 250.753L284.989 250.853C285.061 250.974 285.132 251.092 285.2 251.197L285.772 252.062C285.799 252.106 285.829 252.147 285.858 252.19L286.36 252.89C286.405 252.953 286.45 253.015 286.501 253.075L286.767 253.408C287.772 254.685 289.615 254.903 290.885 253.895C292.157 252.885 292.372 251.035 291.368 249.757L291.229 249.579C291.218 249.566 291.209 249.554 291.198 249.539L291.097 249.418L290.928 249.173C290.915 249.157 290.901 249.137 290.888 249.118L290.632 248.77L290.308 248.271C290.301 248.258 290.291 248.246 290.283 248.233L290.094 247.948C290.075 247.92 290.056 247.889 290.04 247.857C290.007 247.803 289.974 247.745 289.939 247.691C289.866 247.568 289.793 247.447 289.715 247.321C289.641 247.205 289.566 247.085 289.491 246.951C289.485 246.937 289.475 246.922 289.466 246.907C288.994 246.1 288.233 244.698 287.294 242.598C286.461 240.725 285.64 238.625 284.924 236.524C282.997 230.935 281.779 225.512 281.346 223.438C280.932 221.486 280.654 219.958 280.495 219.017L280.247 217.493C279.998 215.89 278.508 214.791 276.914 215.033L222.495 223.282C221.723 223.398 221.03 223.82 220.57 224.449C220.108 225.082 219.915 225.871 220.034 226.645L220.148 227.377C220.148 227.389 220.151 227.4 220.152 227.412L220.477 229.379C220.733 230.887 221.166 233.273 221.787 236.198C222.804 241.018 224.595 248.453 227.36 256.498C228.669 260.328 230.138 264.077 231.726 267.634C233.331 271.228 235.098 274.708 236.838 277.699C237.152 278.246 237.479 278.783 237.796 279.303L238.312 280.15C238.462 280.398 238.607 280.639 238.763 280.879L239.566 282.108C239.902 282.618 240.218 283.097 240.524 283.547C240.536 283.566 240.546 283.585 240.56 283.603L242.432 286.211C242.452 286.236 242.47 286.263 242.491 286.289L243.729 287.877C244.732 289.156 246.576 289.374 247.847 288.368L247.848 288.367Z" fill="#0192D5"/>
</g>
<path fill-rule="evenodd" clip-rule="evenodd" d="M247.043 266.742C246.653 267.036 246.118 267.092 245.662 266.841C245.047 266.5 244.818 265.716 245.157 265.093C248.543 258.857 254.453 252.592 262.723 246.475C268.852 241.94 273.921 239.257 274.133 239.146C274.758 238.817 275.527 239.062 275.853 239.694C276.182 240.322 275.939 241.1 275.313 241.429C275.111 241.535 255.056 252.218 247.396 266.331C247.305 266.496 247.183 266.635 247.043 266.742" fill="white" fill-opacity="0.3"/>
<path fill-rule="evenodd" clip-rule="evenodd" d="M274.48 235.418C274.287 235.567 274.054 235.664 273.796 235.684C273.587 235.7 252.785 237.414 240.145 248.675C239.606 249.157 238.783 249.097 238.313 248.534C237.848 247.972 237.907 247.125 238.451 246.64C251.758 234.783 272.721 233.07 273.605 233.004C274.318 232.95 274.943 233.505 274.996 234.246C275.03 234.718 274.822 235.154 274.48 235.418" fill="white" fill-opacity="0.3"/>
<path fill-rule="evenodd" clip-rule="evenodd" d="M582.547 226.997C583.125 227.034 583.704 226.732 584.14 226.137C584.579 225.544 584.849 224.716 584.891 223.843C584.891 223.843 584.915 223.49 584.927 222.807C584.944 222.125 584.967 221.128 584.997 219.858C585.009 217.29 585.003 213.602 584.635 208.984C584.586 208.405 584.538 207.818 584.486 207.215C584.42 206.604 584.351 205.984 584.28 205.351C584.151 204.095 583.939 202.752 583.743 201.392C583.289 198.638 582.701 195.687 581.862 192.57C581.007 189.451 579.903 186.167 578.442 182.819C576.985 179.474 575.16 176.063 572.939 172.788C570.719 169.51 568.083 166.395 565.206 163.637C563.772 162.25 562.263 160.981 560.741 159.781C559.209 158.612 557.655 157.514 556.1 156.545C552.988 154.589 549.896 153.048 546.991 151.834C544.085 150.622 541.366 149.73 538.905 149.034C536.441 148.339 534.238 147.854 532.322 147.482C530.403 147.108 528.767 146.849 527.442 146.661C526.113 146.47 525.096 146.355 524.399 146.272C523.709 146.196 523.343 146.157 523.343 146.157C523.168 146.139 522.99 146.128 522.818 146.128L522.159 146.065C520.674 145.919 519.287 146.027 518.027 146.313C516.779 146.604 515.667 147.081 514.746 147.707C514.287 148.016 513.872 148.362 513.506 148.74C513.144 149.116 512.831 149.521 512.572 149.951C512.051 150.808 511.757 151.767 511.718 152.782C511.677 153.838 511.919 154.853 512.393 155.783L512.147 155.774C509.631 155.672 507.357 156.393 505.679 157.748C505.273 158.079 504.905 158.439 504.585 158.824C504.27 159.207 503.998 159.615 503.773 160.042C503.317 160.896 503.06 161.825 503.009 162.796C502.928 164.342 503.418 165.807 504.353 167.035C505.288 168.261 506.662 169.246 508.277 169.845C507.557 170.863 507.122 172.042 507.08 173.3C506.963 176.588 509.546 179.445 512.879 180.548C512.258 181.517 511.886 182.627 511.834 183.813C511.79 184.827 511.984 185.804 512.351 186.703C512.727 187.602 513.274 188.424 513.945 189.131C514.612 189.838 515.392 190.429 516.243 190.867C517.083 191.311 518.007 191.596 518.936 191.701C518.936 191.701 519.799 191.787 520.997 191.957C522.2 192.124 523.718 192.386 525.083 192.7C526.449 193.012 527.644 193.381 528.461 193.673C528.66 193.748 528.852 193.81 529.007 193.871C529.163 193.935 529.297 193.988 529.408 194.032C529.52 194.076 529.608 194.108 529.661 194.136C529.715 194.159 529.745 194.173 529.745 194.173C529.819 194.207 529.899 194.226 529.982 194.235C529.982 194.235 530.084 194.273 530.257 194.356C530.342 194.396 530.449 194.446 530.572 194.507C530.633 194.535 530.7 194.566 530.77 194.597C530.837 194.633 530.906 194.672 530.977 194.712C531.581 195.02 532.336 195.469 533.071 196.024C533.427 196.313 533.788 196.629 534.148 196.979C534.497 197.344 534.846 197.749 535.203 198.224C535.565 198.692 535.907 199.269 536.264 199.921C536.447 200.236 536.606 200.618 536.792 200.975C536.946 201.378 537.136 201.754 537.287 202.198C537.46 202.61 537.596 203.092 537.759 203.545C537.83 203.789 537.9 204.032 537.974 204.278L538.083 204.641L538.177 205.029C538.243 205.287 538.31 205.544 538.376 205.798C538.433 206.07 538.488 206.336 538.548 206.606C538.673 207.126 538.754 207.702 538.858 208.244C539.239 210.458 539.442 212.768 539.531 214.83C539.566 215.334 539.567 215.847 539.582 216.324C539.593 216.806 539.617 217.251 539.608 217.693C539.6 218.573 539.624 219.32 539.596 219.97C539.579 220.613 539.566 221.117 539.56 221.462C539.556 221.634 539.552 221.766 539.544 221.856C539.54 221.948 539.539 221.995 539.539 221.995C539.474 223.25 540.409 224.328 541.599 224.413L582.547 226.997Z" fill="#F0F0F0"/>
<path fill-rule="evenodd" clip-rule="evenodd" d="M582.462 224.849C582.611 224.646 582.783 224.235 582.808 223.692L582.81 223.658C582.81 223.655 582.829 223.329 582.843 222.707L582.911 219.782C582.926 216.735 582.893 213.333 582.556 209.126L582.41 207.388L582.204 205.534C582.106 204.56 581.953 203.526 581.791 202.43L581.681 201.688C581.178 198.602 580.578 195.792 579.855 193.111C578.93 189.744 577.845 186.649 576.535 183.652C575.039 180.216 573.251 176.958 571.222 173.966C569.076 170.799 566.569 167.835 563.767 165.152C562.543 163.968 561.177 162.79 559.48 161.45C557.859 160.215 556.397 159.196 555.006 158.332C552.258 156.605 549.297 155.075 546.209 153.783C543.708 152.742 541.141 151.853 538.36 151.069C536.313 150.492 534.214 149.996 531.948 149.557C530.351 149.245 528.791 148.983 527.171 148.754C526.037 148.591 525.128 148.484 524.464 148.405L523.154 148.26L523.069 148.253C522.997 148.246 522.924 148.242 522.854 148.242L522.753 148.243L521.817 148.155C520.683 148.061 519.568 148.135 518.519 148.372C517.524 148.605 516.647 148.974 515.921 149.465C515.573 149.701 515.261 149.96 515.007 150.219C514.751 150.488 514.532 150.772 514.353 151.075C514.007 151.642 513.818 152.259 513.794 152.908C513.767 153.583 513.919 154.249 514.244 154.887L515.844 158.027L512.102 157.872C510.123 157.792 508.309 158.332 507.002 159.391C506.702 159.634 506.429 159.902 506.2 160.177C505.975 160.45 505.78 160.744 505.618 161.048C505.305 161.636 505.129 162.273 505.092 162.939C505.038 163.953 505.358 164.947 506.018 165.809C506.711 166.72 507.779 167.476 509.023 167.936L511.537 168.867L509.98 171.063C509.463 171.79 509.187 172.572 509.159 173.39C509.085 175.579 510.89 177.721 513.552 178.6L516.071 179.435L514.629 181.674C514.187 182.361 513.944 183.112 513.909 183.902C513.88 184.579 514.002 185.257 514.27 185.905C514.544 186.563 514.942 187.168 515.457 187.71C515.973 188.255 516.56 188.699 517.225 189.041C517.828 189.359 518.505 189.569 519.183 189.651C519.313 189.663 520.159 189.75 521.303 189.912C522.743 190.113 524.295 190.394 525.557 190.684C527.229 191.068 528.533 191.499 529.158 191.722L529.198 191.738C529.273 191.765 529.348 191.792 529.42 191.817C529.549 191.864 529.67 191.906 529.781 191.95L530.211 192.122C530.274 192.147 530.338 192.171 530.407 192.2L530.481 192.207L530.737 192.306C530.737 192.306 530.881 192.361 531.127 192.475L531.938 192.875C532.733 193.283 533.574 193.811 534.309 194.365L534.368 194.411C534.813 194.773 535.208 195.124 535.577 195.482L535.632 195.537C536.062 195.986 536.454 196.449 536.835 196.955C537.213 197.446 537.589 198.044 538.049 198.887C538.199 199.147 538.322 199.41 538.434 199.64C538.491 199.763 538.551 199.887 538.612 200.006L538.699 200.202C538.753 200.338 538.81 200.467 538.867 200.6C538.972 200.845 539.091 201.121 539.204 201.441C539.33 201.75 539.431 202.059 539.531 202.356C539.582 202.511 539.632 202.667 539.688 202.82L540.044 204.017L540.298 205.014L540.544 206.118C540.638 206.513 540.706 206.906 540.774 207.285C540.805 207.465 540.836 207.644 540.868 207.819L540.877 207.862C541.23 209.917 541.473 212.272 541.577 214.67C541.603 215.055 541.611 215.435 541.618 215.772C541.621 215.921 541.627 216.069 541.629 216.213L541.631 216.24C541.634 216.395 541.637 216.546 541.643 216.692C541.653 217.012 541.663 217.344 541.658 217.669C541.654 217.997 541.655 218.305 541.657 218.598C541.659 219.088 541.662 219.549 541.643 219.993L541.606 221.443C541.603 221.65 541.598 221.812 541.59 221.929L541.584 222.052C541.575 222.2 541.682 222.302 541.748 222.31L582.443 224.873C582.448 224.866 582.455 224.858 582.462 224.849M537.504 221.834L537.512 221.673C537.515 221.607 537.521 221.507 537.523 221.363L537.558 219.872L537.56 219.835C537.574 219.483 537.572 219.081 537.571 218.618C537.571 218.307 537.568 217.978 537.571 217.612C537.576 217.37 537.568 217.104 537.559 216.822C537.553 216.663 537.549 216.5 537.546 216.337C537.54 216.181 537.537 216.022 537.534 215.861C537.526 215.534 537.521 215.229 537.499 214.94L537.496 214.88C537.399 212.646 537.178 210.472 536.856 208.585C536.818 208.39 536.783 208.192 536.75 207.995C536.692 207.659 536.634 207.338 536.567 207.066L536.454 206.536L536.119 205.164L535.823 204.158C535.766 203.993 535.708 203.824 535.654 203.655C535.57 203.401 535.49 203.161 535.414 202.979L535.362 202.843C535.294 202.648 535.213 202.458 535.117 202.237C535.056 202.095 534.995 201.952 534.939 201.809C534.873 201.68 534.811 201.549 534.747 201.418C534.661 201.236 534.578 201.063 534.513 200.949L534.481 200.891C534.119 200.228 533.848 199.79 533.603 199.474L533.584 199.449C533.307 199.08 533.022 198.742 532.714 198.418C532.446 198.158 532.156 197.904 531.828 197.635C531.087 197.079 530.411 196.708 530.072 196.535L529.404 196.206C529.404 196.206 529.398 196.202 529.394 196.202C529.234 196.162 529.079 196.108 528.928 196.039L528.272 195.773C528.21 195.75 528.142 195.727 528.07 195.701C527.977 195.669 527.879 195.634 527.778 195.595C527.229 195.4 526.107 195.029 524.65 194.697C523.496 194.429 522.073 194.172 520.738 193.987C519.601 193.826 518.767 193.74 518.761 193.742L518.734 193.737C517.553 193.604 516.375 193.239 515.345 192.691C514.292 192.152 513.332 191.429 512.501 190.551C511.643 189.647 510.971 188.623 510.499 187.491C509.998 186.274 509.774 185.008 509.827 183.724C509.857 182.998 509.985 182.282 510.196 181.59C506.99 179.776 504.961 176.58 505.076 173.248C505.106 172.414 505.265 171.59 505.546 170.797C504.455 170.126 503.517 169.287 502.776 168.314C501.516 166.664 500.908 164.73 501.011 162.721C501.079 161.447 501.416 160.232 502.012 159.111C502.302 158.563 502.654 158.04 503.064 157.539C503.468 157.054 503.932 156.598 504.44 156.183C505.918 154.99 507.749 154.21 509.748 153.9C509.708 153.522 509.696 153.137 509.71 152.748C509.764 151.389 510.15 150.105 510.859 148.936C511.194 148.381 511.599 147.851 512.082 147.348C512.54 146.879 513.063 146.444 513.641 146.052C514.785 145.279 516.114 144.712 517.607 144.361C519.078 144.028 520.606 143.925 522.153 144.054C522.23 144.062 522.306 144.068 522.376 144.076L522.945 144.127C523.144 144.131 523.34 144.144 523.584 144.169L524.941 144.32C525.626 144.399 526.565 144.512 527.744 144.682C529.43 144.918 531.057 145.191 532.721 145.514C535.1 145.978 537.303 146.498 539.463 147.108C542.4 147.936 545.12 148.877 547.772 149.982C551.07 151.361 554.231 152.995 557.161 154.835C558.659 155.767 560.227 156.86 561.956 158.177L561.984 158.199C563.802 159.632 565.268 160.899 566.591 162.179C569.596 165.056 572.29 168.241 574.597 171.647C576.767 174.847 578.678 178.329 580.277 181.997C581.665 185.175 582.815 188.454 583.795 192.024C584.559 194.856 585.186 197.804 585.717 201.035L585.832 201.825C585.993 202.917 586.162 204.048 586.267 205.095L586.475 206.957L586.629 208.788C586.977 213.166 587.012 216.677 586.997 219.821L586.928 222.798C586.916 223.441 586.896 223.811 586.889 223.902C586.825 225.184 586.416 226.395 585.742 227.304C584.893 228.46 583.668 229.075 582.378 228.993L541.457 226.413L541.41 226.409C539.133 226.221 537.381 224.168 537.504 221.834" fill="#D6D6D6"/>
<path fill-rule="evenodd" clip-rule="evenodd" d="M537.231 162.994C537.954 163.054 538.654 162.632 538.906 161.933C539.207 161.106 538.762 160.197 537.915 159.901C537.915 159.901 537.761 159.847 537.472 159.766L536.483 159.479C535.463 159.187 534.17 158.856 532.84 158.55C531.132 158.169 529.429 157.838 527.774 157.571C525.966 157.283 524.061 157.034 522.116 156.832C519.149 156.524 515.845 156.301 512.013 156.15L507.696 156.001C506.792 155.968 506.034 156.657 506.001 157.537C505.968 158.417 506.674 159.157 507.579 159.189L511.889 159.339C515.642 159.487 518.876 159.705 521.77 160.006C523.655 160.2 525.495 160.441 527.242 160.719C528.83 160.978 530.465 161.293 532.101 161.659C533.808 162.052 534.998 162.379 535.554 162.539L536.549 162.827C536.716 162.875 536.809 162.904 536.828 162.912C536.962 162.956 537.097 162.982 537.231 162.994" fill="#D6D6D6"/>
<path fill-rule="evenodd" clip-rule="evenodd" d="M532.229 173.995C532.951 174.049 533.649 173.659 533.904 173.012C534.207 172.246 533.768 171.4 532.922 171.121C532.922 171.121 532.79 171.075 532.54 171.01L531.75 170.799C530.929 170.579 529.87 170.33 528.765 170.092C527.287 169.785 525.855 169.529 524.494 169.323C522.923 169.089 521.266 168.886 519.565 168.721C516.903 168.461 513.873 168.269 510.312 168.136L506.118 168L506 170.966L510.185 171.104C513.665 171.232 516.623 171.42 519.214 171.672C520.856 171.833 522.452 172.028 523.958 172.252C525.253 172.447 526.62 172.693 528.022 172.983C529.426 173.284 530.379 173.529 530.82 173.646L531.622 173.862C531.745 173.893 531.809 173.913 531.827 173.918C531.96 173.961 532.095 173.984 532.229 173.995" fill="#D6D6D6"/>
<path fill-rule="evenodd" clip-rule="evenodd" d="M531.182 184.994C531.939 185.056 532.669 184.61 532.915 183.878C533.206 183.02 532.726 182.099 531.844 181.816L531.631 181.749C531.498 181.705 531.318 181.647 531.08 181.582L530.291 181.355C530.277 181.352 530.263 181.347 530.25 181.344L529.172 181.062C527.287 180.592 524.975 180.155 522.804 179.861C520.269 179.506 517.701 179.296 515.993 179.184C512.481 178.95 512.472 178.953 512.055 179.114C511.195 179.451 510.775 180.4 511.122 181.237C511.378 181.863 511.986 182.249 512.644 182.262C512.854 182.272 514.065 182.326 515.763 182.438C517.414 182.549 519.895 182.752 522.332 183.093C524.388 183.373 526.567 183.783 528.317 184.22L530.146 184.719C530.339 184.771 530.474 184.815 530.567 184.846L530.795 184.918C530.922 184.959 531.052 184.983 531.182 184.994" fill="#D6D6D6"/>
<path fill-rule="evenodd" clip-rule="evenodd" d="M584.616 146.558C588.006 147.933 589.809 151.423 588.647 154.354L577.278 183L565 178.023L576.37 149.372C577.535 146.441 581.225 145.181 584.616 146.558" fill="#F0F0F0"/>
<path fill-rule="evenodd" clip-rule="evenodd" d="M564.836 180.515C564.966 180.613 565.113 180.696 565.267 180.762C566.304 181.188 567.478 180.671 567.892 179.6L579.248 150.31C579.588 149.437 580.318 148.764 581.304 148.419C582.404 148.035 583.664 148.096 584.856 148.591C587.203 149.566 588.507 151.926 587.76 153.852L576.405 183.137C575.992 184.208 576.493 185.42 577.528 185.85C578.564 186.278 579.738 185.758 580.151 184.689L591.507 155.404C593.078 151.345 590.771 146.553 586.36 144.722C584.277 143.856 582.021 143.766 580.01 144.469C577.888 145.21 576.286 146.734 575.502 148.758L564.145 178.051C563.794 178.955 564.102 179.967 564.836 180.515" fill="#D6D6D6"/>
<path fill-rule="evenodd" clip-rule="evenodd" d="M546.277 201.843C546.397 201.893 546.523 201.932 546.658 201.958C547.775 202.187 548.863 201.454 549.089 200.321C553.027 180.427 566.367 180.183 566.933 180.183C568.068 180.183 568.995 179.25 569 178.101C569.005 176.95 568.1 176.013 566.965 176C566.784 175.999 562.442 175.988 557.569 178.964C553.176 181.653 547.438 187.396 545.042 199.496C544.842 200.492 545.381 201.467 546.277 201.843" fill="#D6D6D6"/>
<path fill-rule="evenodd" clip-rule="evenodd" d="M524 251.584L566.947 286C566.947 286 567.143 285.752 567.508 285.287C567.688 285.053 567.91 284.764 568.174 284.425C568.415 284.091 568.695 283.706 569.006 283.273C569.315 282.841 569.656 282.361 570.028 281.839C570.379 281.321 570.744 280.766 571.136 280.164C571.333 279.867 571.535 279.556 571.743 279.237C571.946 278.92 572.136 278.599 572.342 278.266C572.742 277.604 573.181 276.897 573.596 276.172C575.288 273.263 576.984 269.928 578.554 266.407C580.124 262.886 581.568 259.187 582.814 255.53C585.328 248.215 587.132 241.054 588.281 235.609C588.858 232.886 589.28 230.595 589.564 228.935C589.703 228.089 589.812 227.425 589.887 226.97C589.96 226.492 590 226.236 590 226.236L535.693 218C535.693 218 535.672 218.133 535.634 218.383C535.59 218.656 535.525 219.057 535.44 219.569C535.26 220.623 534.969 222.197 534.568 224.088C533.777 227.875 532.481 232.925 530.904 237.504C530.122 239.799 529.269 241.957 528.438 243.817C527.606 245.676 526.803 247.246 526.123 248.407C525.953 248.707 525.791 248.955 525.637 249.212C525.563 249.335 525.49 249.468 525.418 249.577C525.347 249.685 525.278 249.788 525.209 249.886C525.078 250.088 524.956 250.276 524.843 250.45C524.734 250.601 524.633 250.739 524.542 250.866C524.453 250.992 524.373 251.106 524.304 251.203C524.236 251.284 524.182 251.354 524.136 251.41C524.047 251.522 524 251.584 524 251.584" fill="#0192D5"/>
<mask id="mask1_0_457" style="mask-type:luminance" maskUnits="userSpaceOnUse" x="521" y="215" width="72" height="74">
<path fill-rule="evenodd" clip-rule="evenodd" d="M521 215H593V289H521V215Z" fill="white"/>
</mask>
<g mask="url(#mask1_0_457)">
<path fill-rule="evenodd" clip-rule="evenodd" d="M565.152 288.367C563.882 287.358 563.665 285.508 564.667 284.231L565.856 282.704L567.651 280.2C567.938 279.781 568.232 279.334 568.543 278.858L569.323 277.667C569.438 277.484 569.561 277.281 569.687 277.076L570.204 276.226C570.501 275.742 570.806 275.24 571.088 274.743C572.737 271.914 574.406 268.628 575.925 265.223C577.44 261.827 578.844 258.247 580.098 254.579C582.763 246.813 584.496 239.632 585.477 234.972C586.044 232.305 586.447 230.107 586.697 228.661L538.059 221.29C537.891 222.203 537.671 223.342 537.391 224.659C536.935 226.833 535.655 232.547 533.621 238.446C532.851 240.703 531.963 242.975 531.055 245.01C530.229 246.858 529.379 248.539 528.597 249.875C528.484 250.078 528.373 250.259 528.264 250.434C528.209 250.525 528.154 250.609 528.102 250.697C528.093 250.718 528.081 250.735 528.07 250.753L528.012 250.853C527.94 250.974 527.869 251.092 527.8 251.197L527.229 252.062C527.201 252.106 527.172 252.147 527.142 252.19L526.641 252.89C526.596 252.953 526.55 253.015 526.5 253.075L526.233 253.408C525.229 254.685 523.386 254.903 522.116 253.895C520.843 252.885 520.628 251.035 521.632 249.757L521.772 249.579C521.782 249.566 521.791 249.554 521.802 249.539L521.904 249.418L522.073 249.173C522.085 249.157 522.1 249.137 522.112 249.118L522.368 248.77L522.692 248.271C522.7 248.258 522.709 248.246 522.717 248.233L522.906 247.948C522.926 247.92 522.945 247.889 522.96 247.857C522.994 247.803 523.026 247.745 523.062 247.691C523.136 247.568 523.208 247.447 523.285 247.321C523.359 247.205 523.434 247.085 523.509 246.951C523.515 246.937 523.526 246.922 523.534 246.907C524.006 246.1 524.768 244.698 525.706 242.598C526.54 240.725 527.361 238.625 528.077 236.524C530.004 230.935 531.222 225.512 531.655 223.438C532.068 221.486 532.347 219.958 532.506 219.017L532.754 217.493C533.003 215.89 534.493 214.791 536.087 215.033L590.505 223.282C591.276 223.398 591.971 223.82 592.431 224.449C592.892 225.082 593.085 225.871 592.965 226.645L592.852 227.377C592.852 227.389 592.849 227.4 592.848 227.412L592.523 229.379C592.267 230.887 591.833 233.273 591.214 236.198C590.196 241.018 588.404 248.453 585.64 256.498C584.331 260.328 582.862 264.077 581.275 267.634C579.67 271.228 577.901 274.708 576.162 277.699C575.849 278.246 575.52 278.783 575.204 279.303L574.689 280.15C574.539 280.398 574.393 280.639 574.237 280.879L573.434 282.108C573.098 282.618 572.782 283.097 572.477 283.547C572.464 283.566 572.454 283.585 572.439 283.603L570.569 286.211C570.548 286.236 570.53 286.263 570.51 286.289L569.272 287.877C568.268 289.156 566.424 289.374 565.153 288.368L565.152 288.367Z" fill="#0192D5"/>
</g>
<path fill-rule="evenodd" clip-rule="evenodd" d="M564.957 266.742C565.347 267.036 565.881 267.092 566.337 266.841C566.953 266.5 567.182 265.716 566.843 265.093C563.456 258.857 557.547 252.592 549.277 246.475C543.148 241.94 538.079 239.257 537.867 239.146C537.241 238.817 536.472 239.062 536.146 239.694C535.818 240.322 536.061 241.1 536.688 241.429C536.888 241.535 556.944 252.218 564.604 266.331C564.695 266.496 564.818 266.635 564.957 266.742" fill="white" fill-opacity="0.3"/>
<path fill-rule="evenodd" clip-rule="evenodd" d="M539.52 235.418C539.714 235.567 539.946 235.664 540.204 235.684C540.414 235.7 561.216 237.414 573.855 248.675C574.394 249.157 575.216 249.097 575.686 248.534C576.152 247.972 576.093 247.125 575.549 246.64C562.243 234.783 541.28 233.07 540.395 233.004C539.681 232.95 539.058 233.505 539.004 234.246C538.97 234.718 539.178 235.154 539.52 235.418" fill="white" fill-opacity="0.3"/>
<path fill-rule="evenodd" clip-rule="evenodd" d="M392.701 297.24L403.472 290.275C404.039 289.908 404.794 289.908 405.362 290.275L415.188 296.629L425.014 290.275C425.58 289.908 426.337 289.908 426.904 290.275L436.729 296.629L446.555 290.275C447.124 289.908 447.879 289.908 448.444 290.275L458.271 296.629L468.097 290.275C468.665 289.908 469.419 289.908 469.986 290.275L479.814 296.629L489.639 290.275C490.206 289.908 490.962 289.908 491.529 290.275L502.3 297.24C503.043 297.721 503.224 298.666 502.701 299.352C502.381 299.774 501.872 300 501.354 300C501.027 300 500.698 299.91 500.409 299.724L490.583 293.371L480.757 299.724C480.192 300.091 479.435 300.091 478.867 299.724L469.043 293.371L459.215 299.724C458.649 300.091 457.895 300.091 457.328 299.724L447.5 293.371L437.674 299.724C437.108 300.091 436.351 300.091 435.784 299.724L425.959 293.371L416.131 299.724C415.565 300.091 414.812 300.091 414.243 299.724L404.418 293.371L394.591 299.724C393.846 300.205 392.821 300.039 392.298 299.352C391.777 298.666 391.956 297.721 392.701 297.24" fill="#0192D5"/>
<path fill-rule="evenodd" clip-rule="evenodd" d="M345.314 41.2362C345.342 41.2707 348.081 44.8117 352.288 44.9929C354.821 45.1007 357.163 43.9853 359.249 41.6735C361.847 38.7967 363.486 38.2395 364.402 38.2791C365.754 38.3387 366.976 39.8379 368.014 41.2362C368.041 41.2707 370.775 44.8109 374.987 44.9929C377.519 45.1007 379.86 43.9862 381.948 41.6735C383.511 39.9431 385.072 39.0814 386.59 39.1098C388.935 39.1512 390.725 41.2586 390.763 41.3017C391.356 42.0237 392.477 42.173 393.272 41.6347C394.069 41.0973 394.236 40.0699 393.645 39.3445C393.532 39.2021 390.817 35.9276 386.698 35.8336C384.011 35.7724 381.478 37.037 379.171 39.5929C377.864 41.0386 376.535 41.7555 375.22 41.7218C373.26 41.6727 371.467 39.9845 370.98 39.385C369.799 37.7926 367.825 35.1461 364.574 35.0055C362.008 34.8968 359.359 36.396 356.473 39.5929C355.166 41.0386 353.838 41.7555 352.52 41.7218C350.562 41.6727 348.769 39.9845 348.284 39.385C347.102 37.7926 345.129 35.1461 341.876 35.0055C339.311 34.8968 336.661 36.396 333.775 39.5929C332.468 41.0386 331.138 41.7563 329.823 41.7218C327.865 41.6727 326.072 39.9845 325.584 39.385C324.402 37.7926 322.432 35.1461 319.177 35.0055C316.612 34.8968 313.963 36.396 311.077 39.5929C310.801 39.8983 310.668 40.2649 310.668 40.6315C310.668 41.1042 310.892 41.5743 311.323 41.8987C312.091 42.4732 313.223 42.3731 313.854 41.6735C316.453 38.7967 318.091 38.2395 319.008 38.2791C320.36 38.3387 321.581 39.8379 322.617 41.2362C322.644 41.2707 325.376 44.8109 329.589 44.9911C332.121 45.1033 334.465 43.9862 336.554 41.6735C339.15 38.7967 340.789 38.2395 341.707 38.2791C343.056 38.3387 344.276 39.8379 345.314 41.2362Z" fill="#0192D5"/>
<path fill-rule="evenodd" clip-rule="evenodd" d="M258.862 98.1388H272.14V84.8591C272.14 83.8317 272.974 83 274.002 83C275.029 83 275.859 83.8317 275.859 84.8591V98.1388H289.139C290.168 98.1388 291 98.973 291 99.9996C291 101.026 290.168 101.859 289.139 101.859H275.859V115.139C275.859 116.168 275.029 117 274.002 117C272.974 117 272.14 116.168 272.14 115.139V101.859H258.862C257.833 101.859 257 101.026 257 99.9996C257 98.973 257.833 98.1388 258.862 98.1388Z" fill="#10202F"/>
<path fill-rule="evenodd" clip-rule="evenodd" d="M308.117 139C307.916 139 307.711 138.971 307.506 138.911C306.387 138.574 305.754 137.397 306.09 136.282C312.459 115.243 325.712 96.3286 343.411 83.0238C361.708 69.2699 383.526 62 406.507 62C429.48 62 451.292 69.2648 469.584 83.0103C487.279 96.3066 500.535 115.21 506.909 136.239C507.246 137.354 506.615 138.53 505.495 138.867C504.376 139.203 503.197 138.572 502.859 137.458C496.741 117.28 484.02 99.1388 467.038 86.3776C449.484 73.1876 428.553 66.2166 406.507 66.2166C384.453 66.2166 363.515 73.1927 345.959 86.3895C328.972 99.1599 316.253 117.311 310.142 137.5C309.866 138.412 309.026 139 308.117 139" fill="#F1F2F4"/>
<path fill-rule="evenodd" clip-rule="evenodd" d="M406.506 271C383.517 271 361.694 263.729 343.396 249.973C325.695 236.667 312.446 217.752 306.09 196.714C305.754 195.599 306.389 194.425 307.507 194.09C308.627 193.755 309.806 194.387 310.143 195.5C316.241 215.687 328.956 233.84 345.944 246.611C363.503 259.81 384.445 266.787 406.506 266.787C428.56 266.787 449.497 259.814 467.051 246.623C484.037 233.86 496.753 215.719 502.86 195.542C503.196 194.429 504.376 193.797 505.495 194.133C506.613 194.468 507.246 195.643 506.91 196.757C500.547 217.784 487.296 236.688 469.599 249.986C451.305 263.733 429.488 271 406.506 271" fill="#F1F2F4"/>
<path fill-rule="evenodd" clip-rule="evenodd" d="M476.603 207.034C476.289 207.034 475.97 206.959 475.673 206.801C474.713 206.285 474.353 205.091 474.868 204.132C482.568 189.761 485.556 172.906 483.279 156.669C480.926 139.889 473.333 124.667 461.321 112.652C449.303 100.631 434.08 93.0346 417.297 90.6844C401.06 88.41 384.203 91.4052 369.834 99.1173C368.874 99.6328 367.679 99.272 367.165 98.3129C366.649 97.3529 367.01 96.1585 367.969 95.6429C383.07 87.5376 400.783 84.3901 417.844 86.779C435.481 89.2492 451.48 97.2313 464.108 109.863C476.732 122.49 484.71 138.486 487.183 156.121C489.574 173.18 486.435 190.892 478.342 205.994C477.987 206.657 477.306 207.034 476.603 207.034" fill="#0192D5"/>
<path fill-rule="evenodd" clip-rule="evenodd" d="M406.375 248C402.627 248 398.876 247.743 395.155 247.223C377.516 244.755 361.517 236.777 348.889 224.152C336.256 211.522 328.274 195.521 325.81 177.879C323.426 160.813 326.583 143.1 334.699 128.003C335.215 127.045 336.411 126.686 337.37 127.2C338.328 127.715 338.687 128.91 338.171 129.869C330.449 144.234 327.445 161.091 329.714 177.335C332.06 194.12 339.653 209.346 351.676 221.366C363.693 233.38 378.918 240.972 395.701 243.319C411.942 245.592 428.798 242.594 443.166 234.882C444.125 234.368 445.32 234.728 445.835 235.687C446.35 236.645 445.989 237.84 445.03 238.354C433.223 244.692 419.818 248 406.375 248" fill="#0192D5"/>
<rect x="43" y="220" width="110.438" height="32" rx="6" fill="#10202F"/>
<rect x="66" y="233" width="64" height="6" rx="3" fill="white"/>
<path d="M380.942 203.071C366.019 203.071 359.783 192.386 367.008 179.332L380.426 155.12L393.07 132.372C400.725 118.543 413.283 118.543 420.938 132.372L433.581 155.163L446.999 179.375C454.224 192.429 447.945 203.114 433.065 203.114H407.004V203.071H380.942Z" fill="#10202F" stroke="white" stroke-width="5.5" stroke-linecap="round" stroke-linejoin="round"/>
<path d="M407.004 150.603V170.484" stroke="white" stroke-width="7.5" stroke-linecap="round" stroke-linejoin="round"/>
<path d="M406.98 182.413H407.377" stroke="white" stroke-width="7.5" stroke-linecap="round" stroke-linejoin="round"/>
</svg>
